<?xml version="1.0" encoding="UTF-8"?> <svg xmlns="http://www.w3.org/2000/svg" width="375" viewBox="0 0 375 375" height="375"> <defs> <clipPath id="a"> <path d="M 138.386719 136.453125 L 236.484375 136.453125 L 236.484375 195 L 138.386719 195 Z M 138.386719 136.453125"></path> </clipPath> </defs> <path fill="#FFF" d="M-37.5 -37.5H412.5V412.5H-37.5z"></path> <path fill="#FFF" d="M-37.5 -37.5H412.5V412.5H-37.5z"></path> <path fill="#9AA7B2" d="M 270.285156 299.136719 C 270.285156 306.414062 263.964844 312.316406 257.226562 312.316406 L 114.550781 312.316406 C 112.65625 312.316406 110.757812 311.894531 109.074219 311.15625 C 111.285156 313.476562 114.339844 314.847656 117.921875 314.847656 L 260.382812 314.847656 C 267.019531 314.847656 272.496094 309.363281 272.496094 302.722656 L 272.496094 75.863281 C 272.496094 72.804688 271.339844 70.0625 269.546875 67.953125 C 270.074219 69.324219 270.285156 70.800781 270.285156 72.277344 L 270.285156 299.136719"></path> <path fill="#FFF" d="M 114.550781 311.261719 L 257.015625 311.261719 C 263.648438 311.261719 269.125 305.78125 269.125 299.136719 L 269.125 72.277344 C 269.125 65.632812 263.648438 60.152344 257.015625 60.152344 L 114.550781 60.152344 C 107.914062 60.152344 102.4375 65.632812 102.4375 72.277344 L 102.4375 299.136719 C 102.4375 305.886719 107.914062 311.261719 114.550781 311.261719"></path> <path fill="#77838D" d="M 268.179688 65.316406 C 265.863281 61.628906 261.753906 59.097656 257.015625 59.097656 L 114.550781 59.097656 C 107.28125 59.097656 101.382812 65.003906 101.382812 72.277344 L 101.382812 299.136719 C 101.382812 303.460938 103.492188 307.257812 106.652344 309.679688 C 108.96875 313.371094 113.074219 315.902344 118.058594 315.902344 L 260.277344 315.902344 C 267.546875 315.902344 273.445312 309.996094 273.445312 302.722656 L 273.445312 75.863281 C 273.445312 71.539062 271.339844 67.742188 268.179688 65.316406 M 102.4375 299.136719 L 102.4375 72.277344 C 102.4375 65.632812 107.914062 60.152344 114.550781 60.152344 L 257.015625 60.152344 C 263.648438 60.152344 269.125 65.632812 269.125 72.277344 L 269.125 299.136719 C 269.125 305.78125 263.648438 311.261719 257.015625 311.261719 L 114.550781 311.261719 C 107.914062 311.261719 102.4375 305.886719 102.4375 299.136719 M 272.496094 302.722656 C 272.496094 309.363281 266.914062 314.847656 260.277344 314.847656 L 118.058594 314.847656 C 114.445312 314.847656 111.390625 313.476562 109.179688 311.15625 C 110.863281 311.894531 112.65625 312.316406 114.65625 312.316406 L 257.121094 312.316406 C 264.386719 312.316406 270.285156 306.414062 270.285156 299.136719 L 270.285156 72.277344 C 270.285156 70.800781 269.96875 69.324219 269.546875 67.953125 C 271.339844 70.0625 272.496094 72.804688 272.496094 75.863281 L 272.496094 302.722656"></path> <path fill="#100F0D" d="M 178.109375 218.234375 C 178.171875 218.214844 178.246094 218.242188 178.296875 218.285156 C 180.929688 220.519531 184.121094 222 187.535156 222.542969 C 188.058594 222.628906 188.59375 222.628906 189.117188 222.542969 C 192.523438 222 195.714844 220.519531 198.355469 218.285156 C 198.460938 218.195312 198.613281 218.214844 198.703125 218.320312 C 198.757812 218.382812 198.773438 218.464844 198.757812 218.542969 C 197.636719 222.976562 194.710938 226.742188 190.683594 228.914062 C 189.207031 229.707031 187.429688 229.707031 185.953125 228.914062 C 181.933594 226.742188 179 222.976562 177.886719 218.542969 C 177.851562 218.402344 177.933594 218.269531 178.066406 218.234375 C 178.074219 218.234375 178.09375 218.234375 178.101562 218.234375 Z M 178.046875 205.378906 C 181.277344 205.242188 184.300781 206.933594 185.882812 209.75 C 185.933594 209.863281 185.898438 209.988281 185.800781 210.058594 L 185.828125 210.058594 C 182.546875 212.847656 177.640625 212.4375 174.867188 209.152344 C 174.339844 208.527344 173.914062 207.835938 173.613281 207.085938 C 173.566406 206.980469 173.601562 206.855469 173.699219 206.785156 C 175 205.929688 176.5 205.449219 178.046875 205.378906 Z M 198.132812 205.378906 C 199.867188 205.339844 201.566406 205.839844 203.003906 206.785156 C 203.105469 206.855469 203.148438 206.980469 203.105469 207.085938 C 201.457031 211.066406 196.914062 212.960938 192.941406 211.316406 C 192.195312 211.011719 191.492188 210.585938 190.878906 210.058594 C 190.78125 209.996094 190.746094 209.863281 190.796875 209.75 L 190.824219 209.75 C 192.320312 207.09375 195.09375 205.429688 198.132812 205.378906 Z M 166.214844 198.289062 C 165.164062 211.449219 170.179688 224.375 179.828125 233.386719 C 184.609375 237.84375 192.035156 237.84375 196.828125 233.386719 C 206.472656 224.375 211.488281 211.449219 210.4375 198.289062 L 166.214844 198.289062"></path> <g clip-path="url(#a)"> <path fill="#100F0D" d="M 202.285156 173 C 194.621094 165.414062 192.996094 153.625 198.3125 144.242188 C 200.179688 145.800781 202.953125 145.550781 204.507812 143.679688 C 206.0625 141.8125 205.816406 139.035156 203.949219 137.476562 C 202.082031 135.917969 199.296875 136.167969 197.742188 138.039062 C 196.558594 139.46875 196.390625 141.484375 197.332031 143.085938 C 184.796875 146.34375 175.65625 157.132812 174.5 170.042969 C 168.472656 160.910156 156.195312 158.40625 147.082031 164.441406 C 147.0625 164.453125 147.046875 164.460938 147.027344 164.46875 C 146.378906 162.128906 143.953125 160.746094 141.613281 161.40625 C 139.265625 162.058594 137.898438 164.488281 138.546875 166.828125 C 139.195312 169.179688 141.621094 170.550781 143.96875 169.898438 C 145.722656 169.410156 146.992188 167.886719 147.171875 166.070312 C 157.476562 172.144531 164.4375 182.605469 166.0625 194.460938 L 210.597656 194.460938 C 213.328125 185.953125 219.597656 179.050781 227.804688 175.527344 C 228.183594 177.929688 230.445312 179.566406 232.84375 179.175781 C 235.246094 178.792969 236.878906 176.53125 236.488281 174.128906 C 236.105469 171.726562 233.847656 170.097656 231.449219 170.480469 C 230 170.710938 228.761719 171.652344 228.148438 172.988281 C 221.152344 165.839844 209.691406 165.726562 202.550781 172.730469 C 202.464844 172.820312 202.375 172.910156 202.285156 173.007812 L 202.285156 173"></path> </g> <g> <g> <g> <path d="M 0.625 -0.671875 L 1.765625 -0.8125 L 1.765625 -9.359375 L 0.703125 -9.53125 L 0.703125 -10.203125 L 2.5 -10.203125 C 2.757812 -10.203125 3.109375 -10.222656 3.546875 -10.265625 C 4.003906 -10.296875 4.359375 -10.3125 4.609375 -10.3125 C 5.960938 -10.3125 6.921875 -10.09375 7.484375 -9.65625 C 8.054688 -9.226562 8.34375 -8.546875 8.34375 -7.609375 C 8.34375 -6.960938 8.160156 -6.367188 7.796875 -5.828125 C 7.441406 -5.285156 6.945312 -4.914062 6.3125 -4.71875 C 6.601562 -4.5625 6.875 -4.289062 7.125 -3.90625 C 7.382812 -3.53125 7.695312 -3.003906 8.0625 -2.328125 C 8.34375 -1.816406 8.554688 -1.441406 8.703125 -1.203125 C 8.859375 -0.960938 9.003906 -0.832031 9.140625 -0.8125 L 9.6875 -0.671875 L 9.6875 0 L 7.78125 0 C 7.632812 0 7.46875 -0.15625 7.28125 -0.46875 C 7.101562 -0.789062 6.863281 -1.28125 6.5625 -1.9375 C 6.238281 -2.65625 5.953125 -3.226562 5.703125 -3.65625 C 5.460938 -4.082031 5.222656 -4.359375 4.984375 -4.484375 C 4.003906 -4.484375 3.421875 -4.484375 3.234375 -4.484375 L 3.234375 -0.8125 L 4.59375 -0.671875 L 4.59375 0 L 0.625 0 Z M 4.875 -5.21875 C 5.457031 -5.21875 5.914062 -5.410156 6.25 -5.796875 C 6.59375 -6.179688 6.765625 -6.753906 6.765625 -7.515625 C 6.765625 -8.179688 6.59375 -8.691406 6.25 -9.046875 C 5.90625 -9.398438 5.316406 -9.578125 4.484375 -9.578125 C 4.179688 -9.578125 3.882812 -9.554688 3.59375 -9.515625 C 3.414062 -9.492188 3.296875 -9.484375 3.234375 -9.484375 L 3.234375 -5.234375 C 3.378906 -5.222656 3.664062 -5.21875 4.09375 -5.21875 Z M 4.875 -5.21875" transform="translate(112.486 86.089)"></path> </g> </g> </g> <g> <g> <g> <path d="M 1.765625 -9.359375 L 0.640625 -9.515625 L 0.640625 -10.203125 L 7.640625 -10.203125 L 7.828125 -8.078125 L 7.046875 -8.078125 L 6.640625 -9.40625 L 3.234375 -9.484375 L 3.234375 -5.625 L 5.53125 -5.65625 L 5.734375 -6.796875 L 6.484375 -6.796875 L 6.484375 -3.640625 L 5.734375 -3.640625 L 5.53125 -4.828125 L 3.234375 -4.859375 L 3.234375 -0.765625 L 7.109375 -0.90625 L 7.84375 -2.640625 L 8.65625 -2.390625 L 8.25 0 L 0.625 0 L 0.625 -0.671875 L 1.765625 -0.8125 Z M 1.765625 -9.359375" transform="translate(112.915 101.114)"></path> </g> </g> </g> <g> <g> <g> <path d="M 1.796875 -9.359375 L 0.6875 -9.515625 L 0.6875 -10.203125 L 4.625 -10.203125 L 4.625 -9.515625 L 3.265625 -9.359375 L 3.265625 -0.8125 L 6.8125 -0.9375 L 7.625 -3.234375 L 8.453125 -3.125 L 7.984375 0 L 0.65625 0 L 0.65625 -0.671875 L 1.796875 -0.8125 Z M 1.796875 -9.359375" transform="translate(112.987 116.14)"></path> </g> </g> </g> <g> <g> <g> <path d="M 2.015625 -9.359375 L 0.734375 -9.515625 L 0.734375 -10.203125 L 4.78125 -10.203125 L 4.78125 -9.515625 L 3.5 -9.359375 L 3.5 -0.8125 L 4.78125 -0.65625 L 4.78125 0 L 0.75 0 L 0.75 -0.671875 L 2.015625 -0.8125 Z M 2.015625 -9.359375" transform="translate(114.561 131.166)"></path> </g> </g> </g> <g> <g> <g> <path d="M 5.359375 0.15625 C 4.367188 0.15625 3.515625 -0.0625 2.796875 -0.5 C 2.078125 -0.945312 1.53125 -1.554688 1.15625 -2.328125 C 0.78125 -3.097656 0.59375 -3.972656 0.59375 -4.953125 C 0.59375 -6.078125 0.8125 -7.039062 1.25 -7.84375 C 1.695312 -8.65625 2.3125 -9.269531 3.09375 -9.6875 C 3.882812 -10.101562 4.785156 -10.3125 5.796875 -10.3125 C 6.722656 -10.3125 7.789062 -10.171875 9 -9.890625 L 8.875 -7.515625 L 7.890625 -7.515625 L 7.5625 -9.15625 C 7.4375 -9.257812 7.21875 -9.359375 6.90625 -9.453125 C 6.601562 -9.546875 6.195312 -9.59375 5.6875 -9.59375 C 5.019531 -9.59375 4.425781 -9.425781 3.90625 -9.09375 C 3.394531 -8.757812 2.992188 -8.265625 2.703125 -7.609375 C 2.421875 -6.960938 2.28125 -6.179688 2.28125 -5.265625 C 2.28125 -4.410156 2.394531 -3.628906 2.625 -2.921875 C 2.863281 -2.222656 3.222656 -1.660156 3.703125 -1.234375 C 4.179688 -0.804688 4.769531 -0.59375 5.46875 -0.59375 C 5.90625 -0.59375 6.320312 -0.644531 6.71875 -0.75 C 7.113281 -0.851562 7.414062 -0.992188 7.625 -1.171875 L 7.625 -4.234375 L 5.890625 -4.375 L 5.890625 -5.171875 L 9.90625 -5.171875 L 9.90625 -4.375 L 9.109375 -4.25 L 9.109375 -0.546875 C 8.898438 -0.535156 8.566406 -0.457031 8.109375 -0.3125 C 7.628906 -0.164062 7.175781 -0.0507812 6.75 0.03125 C 6.332031 0.113281 5.867188 0.15625 5.359375 0.15625 Z M 5.359375 0.15625" transform="translate(112.271 146.192)"></path> </g> </g> </g> <g> <g> <g> <path d="M 2.015625 -9.359375 L 0.734375 -9.515625 L 0.734375 -10.203125 L 4.78125 -10.203125 L 4.78125 -9.515625 L 3.5 -9.359375 L 3.5 -0.8125 L 4.78125 -0.65625 L 4.78125 0 L 0.75 0 L 0.75 -0.671875 L 2.015625 -0.8125 Z M 2.015625 -9.359375" transform="translate(114.561 161.218)"></path> </g> </g> </g> <g> <g> <g> <path d="M 4.796875 0.15625 C 3.859375 0.15625 3.066406 -0.0546875 2.421875 -0.484375 C 1.773438 -0.921875 1.285156 -1.53125 0.953125 -2.3125 C 0.628906 -3.09375 0.46875 -4.003906 0.46875 -5.046875 C 0.46875 -6.097656 0.664062 -7.019531 1.0625 -7.8125 C 1.457031 -8.613281 2.003906 -9.226562 2.703125 -9.65625 C 3.398438 -10.09375 4.179688 -10.3125 5.046875 -10.3125 C 6.484375 -10.3125 7.578125 -9.859375 8.328125 -8.953125 C 9.085938 -8.054688 9.46875 -6.8125 9.46875 -5.21875 C 9.46875 -4.144531 9.257812 -3.203125 8.84375 -2.390625 C 8.4375 -1.585938 7.878906 -0.960938 7.171875 -0.515625 C 6.460938 -0.0664062 5.671875 0.15625 4.796875 0.15625 Z M 4.96875 -9.59375 C 4.082031 -9.59375 3.378906 -9.207031 2.859375 -8.4375 C 2.347656 -7.664062 2.09375 -6.535156 2.09375 -5.046875 C 2.09375 -3.671875 2.34375 -2.582031 2.84375 -1.78125 C 3.34375 -0.976562 4.039062 -0.578125 4.9375 -0.578125 C 5.820312 -0.578125 6.519531 -0.972656 7.03125 -1.765625 C 7.550781 -2.566406 7.8125 -3.710938 7.8125 -5.203125 C 7.8125 -6.585938 7.5625 -7.664062 7.0625 -8.4375 C 6.570312 -9.207031 5.875 -9.59375 4.96875 -9.59375 Z M 4.96875 -9.59375" transform="translate(112.399 176.244)"></path> </g> </g> </g> <g> <g> <g> <path d="M -0.625 0.671875 L -1.765625 0.8125 L -1.765625 9.359375 L -0.703125 9.53125 L -0.703125 10.203125 L -2.5 10.203125 C -2.757812 10.203125 -3.109375 10.222656 -3.546875 10.265625 C -4.003906 10.296875 -4.359375 10.3125 -4.609375 10.3125 C -5.960938 10.3125 -6.921875 10.09375 -7.484375 9.65625 C -8.054688 9.226562 -8.34375 8.546875 -8.34375 7.609375 C -8.34375 6.960938 -8.160156 6.367188 -7.796875 5.828125 C -7.441406 5.285156 -6.945312 4.914062 -6.3125 4.71875 C -6.601562 4.5625 -6.875 4.289062 -7.125 3.90625 C -7.382812 3.53125 -7.695312 3.003906 -8.0625 2.328125 C -8.34375 1.816406 -8.554688 1.441406 -8.703125 1.203125 C -8.859375 0.960938 -9.003906 0.832031 -9.140625 0.8125 L -9.6875 0.671875 L -9.6875 0 L -7.78125 0 C -7.632812 0 -7.46875 0.15625 -7.28125 0.46875 C -7.101562 0.789062 -6.863281 1.28125 -6.5625 1.9375 C -6.238281 2.65625 -5.953125 3.226562 -5.703125 3.65625 C -5.460938 4.082031 -5.222656 4.359375 -4.984375 4.484375 C -4.003906 4.484375 -3.421875 4.484375 -3.234375 4.484375 L -3.234375 0.8125 L -4.59375 0.671875 L -4.59375 0 L -0.625 0 Z M -4.875 5.21875 C -5.457031 5.21875 -5.914062 5.410156 -6.25 5.796875 C -6.59375 6.179688 -6.765625 6.753906 -6.765625 7.515625 C -6.765625 8.179688 -6.59375 8.691406 -6.25 9.046875 C -5.90625 9.398438 -5.316406 9.578125 -4.484375 9.578125 C -4.179688 9.578125 -3.882812 9.554688 -3.59375 9.515625 C -3.414062 9.492188 -3.296875 9.484375 -3.234375 9.484375 L -3.234375 5.234375 C -3.378906 5.222656 -3.664062 5.21875 -4.09375 5.21875 Z M -4.875 5.21875" transform="translate(260.313 281.057)"></path> </g> </g> </g> <g> <g> <g> <path d="M -1.765625 9.359375 L -0.640625 9.515625 L -0.640625 10.203125 L -7.640625 10.203125 L -7.828125 8.078125 L -7.046875 8.078125 L -6.640625 9.40625 L -3.234375 9.484375 L -3.234375 5.625 L -5.53125 5.65625 L -5.734375 6.796875 L -6.484375 6.796875 L -6.484375 3.640625 L -5.734375 3.640625 L -5.53125 4.828125 L -3.234375 4.859375 L -3.234375 0.765625 L -7.109375 0.90625 L -7.84375 2.640625 L -8.65625 2.390625 L -8.25 0 L -0.625 0 L -0.625 0.671875 L -1.765625 0.8125 Z M -1.765625 9.359375" transform="translate(259.884 266.031)"></path> </g> </g> </g> <g> <g> <g> <path d="M -1.796875 9.359375 L -0.6875 9.515625 L -0.6875 10.203125 L -4.625 10.203125 L -4.625 9.515625 L -3.265625 9.359375 L -3.265625 0.8125 L -6.8125 0.9375 L -7.625 3.234375 L -8.453125 3.125 L -7.984375 0 L -0.65625 0 L -0.65625 0.671875 L -1.796875 0.8125 Z M -1.796875 9.359375" transform="translate(259.812 251.005)"></path> </g> </g> </g> <g> <g> <g> <path d="M -2.015625 9.359375 L -0.734375 9.515625 L -0.734375 10.203125 L -4.78125 10.203125 L -4.78125 9.515625 L -3.5 9.359375 L -3.5 0.8125 L -4.78125 0.65625 L -4.78125 0 L -0.75 0 L -0.75 0.671875 L -2.015625 0.8125 Z M -2.015625 9.359375" transform="translate(258.238 235.98)"></path> </g> </g> </g> <g> <g> <g> <path d="M -5.359375 -0.15625 C -4.367188 -0.15625 -3.515625 0.0625 -2.796875 0.5 C -2.078125 0.945312 -1.53125 1.554688 -1.15625 2.328125 C -0.78125 3.097656 -0.59375 3.972656 -0.59375 4.953125 C -0.59375 6.078125 -0.8125 7.039062 -1.25 7.84375 C -1.695312 8.65625 -2.3125 9.269531 -3.09375 9.6875 C -3.882812 10.101562 -4.785156 10.3125 -5.796875 10.3125 C -6.722656 10.3125 -7.789062 10.171875 -9 9.890625 L -8.875 7.515625 L -7.890625 7.515625 L -7.5625 9.15625 C -7.4375 9.257812 -7.21875 9.359375 -6.90625 9.453125 C -6.601562 9.546875 -6.195312 9.59375 -5.6875 9.59375 C -5.019531 9.59375 -4.425781 9.425781 -3.90625 9.09375 C -3.394531 8.757812 -2.992188 8.265625 -2.703125 7.609375 C -2.421875 6.960938 -2.28125 6.179688 -2.28125 5.265625 C -2.28125 4.410156 -2.394531 3.628906 -2.625 2.921875 C -2.863281 2.222656 -3.222656 1.660156 -3.703125 1.234375 C -4.179688 0.804688 -4.769531 0.59375 -5.46875 0.59375 C -5.90625 0.59375 -6.320312 0.644531 -6.71875 0.75 C -7.113281 0.851562 -7.414062 0.992188 -7.625 1.171875 L -7.625 4.234375 L -5.890625 4.375 L -5.890625 5.171875 L -9.90625 5.171875 L -9.90625 4.375 L -9.109375 4.25 L -9.109375 0.546875 C -8.898438 0.535156 -8.566406 0.457031 -8.109375 0.3125 C -7.628906 0.164062 -7.175781 0.0507812 -6.75 -0.03125 C -6.332031 -0.113281 -5.867188 -0.15625 -5.359375 -0.15625 Z M -5.359375 -0.15625" transform="translate(260.528 220.954)"></path> </g> </g> </g> <g> <g> <g> <path d="M -2.015625 9.359375 L -0.734375 9.515625 L -0.734375 10.203125 L -4.78125 10.203125 L -4.78125 9.515625 L -3.5 9.359375 L -3.5 0.8125 L -4.78125 0.65625 L -4.78125 0 L -0.75 0 L -0.75 0.671875 L -2.015625 0.8125 Z M -2.015625 9.359375" transform="translate(258.238 205.928)"></path> </g> </g> </g> <g> <g> <g> <path d="M -4.796875 -0.15625 C -3.859375 -0.15625 -3.066406 0.0546875 -2.421875 0.484375 C -1.773438 0.921875 -1.285156 1.53125 -0.953125 2.3125 C -0.628906 3.09375 -0.46875 4.003906 -0.46875 5.046875 C -0.46875 6.097656 -0.664062 7.019531 -1.0625 7.8125 C -1.457031 8.613281 -2.003906 9.226562 -2.703125 9.65625 C -3.398438 10.09375 -4.179688 10.3125 -5.046875 10.3125 C -6.484375 10.3125 -7.578125 9.859375 -8.328125 8.953125 C -9.085938 8.054688 -9.46875 6.8125 -9.46875 5.21875 C -9.46875 4.144531 -9.257812 3.203125 -8.84375 2.390625 C -8.4375 1.585938 -7.878906 0.960938 -7.171875 0.515625 C -6.460938 0.0664062 -5.671875 -0.15625 -4.796875 -0.15625 Z M -4.96875 9.59375 C -4.082031 9.59375 -3.378906 9.207031 -2.859375 8.4375 C -2.347656 7.664062 -2.09375 6.535156 -2.09375 5.046875 C -2.09375 3.671875 -2.34375 2.582031 -2.84375 1.78125 C -3.34375 0.976562 -4.039062 0.578125 -4.9375 0.578125 C -5.820312 0.578125 -6.519531 0.972656 -7.03125 1.765625 C -7.550781 2.566406 -7.8125 3.710938 -7.8125 5.203125 C -7.8125 6.585938 -7.5625 7.664062 -7.0625 8.4375 C -6.570312 9.207031 -5.875 9.59375 -4.96875 9.59375 Z M -4.96875 9.59375" transform="translate(260.4 190.902)"></path> </g> </g> </g> </svg> 