<?xml version="1.0" encoding="UTF-8"?> <svg xmlns="http://www.w3.org/2000/svg" width="375" viewBox="0 0 375 375" height="375"> <defs> <clipPath id="a"> <path d="M 139.070312 137.496094 L 235.804688 137.496094 L 235.804688 195 L 139.070312 195 Z M 139.070312 137.496094"></path> </clipPath> </defs> <path fill="#FFF" d="M-37.5 -37.5H412.5V412.5H-37.5z"></path> <path fill="#FFF" d="M-37.5 -37.5H412.5V412.5H-37.5z"></path> <path fill="#9AA7B2" d="M 270.492188 297.582031 C 270.492188 304.753906 264.253906 310.578125 257.597656 310.578125 L 114.414062 310.578125 C 112.542969 310.578125 110.671875 310.160156 109.007812 309.433594 C 111.191406 311.722656 114.207031 313.074219 117.757812 313.074219 L 260.71875 313.074219 C 267.269531 313.074219 272.675781 307.667969 272.675781 301.117188 L 272.675781 77.417969 C 272.675781 74.402344 271.53125 71.699219 269.765625 69.621094 C 270.285156 70.972656 270.492188 72.425781 270.492188 73.882812 L 270.492188 297.582031"></path> <path fill="#FFF" d="M 114.414062 309.539062 L 257.390625 309.539062 C 263.941406 309.539062 269.347656 304.132812 269.347656 297.582031 L 269.347656 73.882812 C 269.347656 67.332031 263.941406 61.925781 257.390625 61.925781 L 114.414062 61.925781 C 107.863281 61.925781 102.457031 67.332031 102.457031 73.882812 L 102.457031 297.582031 C 102.457031 304.234375 107.863281 309.539062 114.414062 309.539062"></path> <path fill="#77838D" d="M 268.414062 67.023438 C 266.125 63.382812 262.070312 60.886719 257.390625 60.886719 L 114.414062 60.886719 C 107.242188 60.886719 101.417969 66.710938 101.417969 73.882812 L 101.417969 297.582031 C 101.417969 301.84375 103.496094 305.585938 106.617188 307.976562 C 108.90625 311.617188 112.960938 314.113281 117.898438 314.113281 L 260.613281 314.113281 C 267.789062 314.113281 273.613281 308.289062 273.613281 301.117188 L 273.613281 77.417969 C 273.613281 73.15625 271.53125 69.414062 268.414062 67.023438 M 102.457031 297.582031 L 102.457031 73.882812 C 102.457031 67.332031 107.863281 61.925781 114.414062 61.925781 L 257.390625 61.925781 C 263.941406 61.925781 269.347656 67.332031 269.347656 73.882812 L 269.347656 297.582031 C 269.347656 304.132812 263.941406 309.539062 257.390625 309.539062 L 114.414062 309.539062 C 107.863281 309.539062 102.457031 304.234375 102.457031 297.582031 M 272.675781 301.117188 C 272.675781 307.667969 267.164062 313.074219 260.613281 313.074219 L 117.898438 313.074219 C 114.3125 313.074219 111.296875 311.722656 109.113281 309.433594 C 110.777344 310.160156 112.542969 310.578125 114.519531 310.578125 L 257.496094 310.578125 C 264.667969 310.578125 270.492188 304.753906 270.492188 297.582031 L 270.492188 73.882812 C 270.492188 72.425781 270.179688 70.972656 269.765625 69.621094 C 271.53125 71.699219 272.675781 74.402344 272.675781 77.417969 L 272.675781 301.117188"></path> <path fill="#100F0D" d="M 178.242188 218.136719 C 178.304688 218.121094 178.375 218.144531 178.425781 218.191406 C 181.019531 220.394531 184.167969 221.851562 187.535156 222.386719 C 188.050781 222.472656 188.578125 222.472656 189.09375 222.386719 C 192.453125 221.851562 195.601562 220.394531 198.203125 218.191406 C 198.308594 218.101562 198.457031 218.121094 198.546875 218.226562 C 198.597656 218.285156 198.617188 218.367188 198.597656 218.445312 C 197.496094 222.816406 194.609375 226.53125 190.636719 228.671875 C 189.183594 229.453125 187.429688 229.453125 185.972656 228.671875 C 182.011719 226.53125 179.117188 222.816406 178.023438 218.445312 C 177.988281 218.304688 178.066406 218.171875 178.199219 218.136719 C 178.207031 218.136719 178.222656 218.136719 178.234375 218.136719 Z M 178.179688 205.460938 C 181.363281 205.328125 184.34375 206.996094 185.902344 209.769531 C 185.957031 209.886719 185.921875 210.007812 185.824219 210.078125 L 185.851562 210.078125 C 182.617188 212.824219 177.777344 212.421875 175.042969 209.183594 C 174.523438 208.570312 174.105469 207.882812 173.804688 207.144531 C 173.761719 207.042969 173.796875 206.917969 173.894531 206.847656 C 175.171875 206.003906 176.65625 205.53125 178.179688 205.460938 Z M 197.984375 205.460938 C 199.695312 205.425781 201.371094 205.917969 202.789062 206.847656 C 202.886719 206.917969 202.929688 207.042969 202.886719 207.144531 C 201.265625 211.070312 196.785156 212.941406 192.867188 211.316406 C 192.128906 211.019531 191.4375 210.597656 190.832031 210.078125 C 190.734375 210.015625 190.699219 209.886719 190.753906 209.769531 L 190.777344 209.769531 C 192.25 207.15625 194.988281 205.511719 197.984375 205.460938 Z M 166.511719 198.472656 C 165.476562 211.449219 170.421875 224.195312 179.933594 233.078125 C 184.652344 237.476562 191.972656 237.476562 196.695312 233.078125 C 206.207031 224.195312 211.152344 211.449219 210.117188 198.472656 L 166.511719 198.472656"></path> <g clip-path="url(#a)"> <path fill="#100F0D" d="M 202.078125 173.535156 C 194.523438 166.054688 192.917969 154.429688 198.160156 145.179688 C 200 146.714844 202.738281 146.46875 204.269531 144.625 C 205.804688 142.78125 205.558594 140.042969 203.71875 138.507812 C 201.878906 136.972656 199.132812 137.214844 197.597656 139.058594 C 196.433594 140.472656 196.265625 142.457031 197.195312 144.039062 C 184.835938 147.25 175.820312 157.890625 174.683594 170.617188 C 168.738281 161.613281 156.632812 159.144531 147.644531 165.097656 C 147.628906 165.105469 147.609375 165.113281 147.59375 165.125 C 146.953125 162.816406 144.558594 161.453125 142.253906 162.105469 C 139.9375 162.746094 138.589844 165.140625 139.226562 167.449219 C 139.867188 169.765625 142.261719 171.121094 144.578125 170.476562 C 146.304688 169.996094 147.558594 168.496094 147.730469 166.703125 C 157.894531 172.691406 164.757812 183.003906 166.363281 194.699219 L 210.277344 194.699219 C 212.96875 186.304688 219.148438 179.503906 227.242188 176.027344 C 227.617188 178.398438 229.84375 180.011719 232.210938 179.625 C 234.578125 179.25 236.191406 177.019531 235.804688 174.648438 C 235.429688 172.277344 233.203125 170.671875 230.835938 171.050781 C 229.40625 171.277344 228.1875 172.207031 227.582031 173.523438 C 220.683594 166.476562 209.382812 166.359375 202.34375 173.269531 C 202.253906 173.359375 202.167969 173.445312 202.078125 173.542969 L 202.078125 173.535156"></path> </g> <g> <g> <g> <path d="M 1.75 -9.21875 L 0.6875 -9.390625 L 0.6875 -10.0625 L 2.46875 -10.0625 C 2.75 -10.0625 3.148438 -10.082031 3.671875 -10.125 C 4.191406 -10.15625 4.582031 -10.171875 4.84375 -10.171875 C 6.53125 -10.171875 7.78125 -9.75 8.59375 -8.90625 C 9.414062 -8.0625 9.828125 -6.875 9.828125 -5.34375 C 9.828125 -4.28125 9.613281 -3.332031 9.1875 -2.5 C 8.769531 -1.675781 8.179688 -1.035156 7.421875 -0.578125 C 6.660156 -0.117188 5.789062 0.109375 4.8125 0.109375 C 4.59375 0.109375 4.222656 0.0859375 3.703125 0.046875 C 3.160156 0.015625 2.753906 0 2.484375 0 L 0.625 0 L 0.625 -0.65625 L 1.75 -0.796875 Z M 3.1875 -0.765625 C 3.5 -0.691406 3.90625 -0.65625 4.40625 -0.65625 L 4.8125 -0.65625 C 5.488281 -0.65625 6.085938 -0.820312 6.609375 -1.15625 C 7.128906 -1.5 7.53125 -2 7.8125 -2.65625 C 8.101562 -3.320312 8.25 -4.128906 8.25 -5.078125 C 8.25 -6.503906 7.9375 -7.585938 7.3125 -8.328125 C 6.695312 -9.066406 5.769531 -9.4375 4.53125 -9.4375 C 4.257812 -9.4375 3.945312 -9.421875 3.59375 -9.390625 C 3.4375 -9.359375 3.300781 -9.34375 3.1875 -9.34375 Z M 3.1875 -0.765625" transform="translate(114.346 82.782)"></path> </g> </g> </g> <g> <g> <g> <path d="M 1.984375 -9.21875 L 0.734375 -9.390625 L 0.734375 -10.0625 L 4.71875 -10.0625 L 4.71875 -9.390625 L 3.453125 -9.21875 L 3.453125 -0.796875 L 4.71875 -0.65625 L 4.71875 0 L 0.75 0 L 0.75 -0.65625 L 1.984375 -0.796875 Z M 1.984375 -9.21875" transform="translate(116.745 97.599)"></path> </g> </g> </g> <g> <g> <g> <path d="M 3.921875 0.15625 C 3.453125 0.15625 3.03125 0.113281 2.65625 0.03125 C 2.289062 -0.0507812 1.890625 -0.160156 1.453125 -0.296875 C 1.179688 -0.398438 0.976562 -0.453125 0.84375 -0.453125 L 0.953125 -2.90625 L 1.8125 -2.90625 L 2.046875 -1.15625 C 2.203125 -1.007812 2.453125 -0.878906 2.796875 -0.765625 C 3.140625 -0.648438 3.519531 -0.59375 3.9375 -0.59375 C 4.625 -0.59375 5.144531 -0.742188 5.5 -1.046875 C 5.863281 -1.359375 6.046875 -1.785156 6.046875 -2.328125 C 6.046875 -2.679688 5.945312 -2.984375 5.75 -3.234375 C 5.550781 -3.484375 5.289062 -3.695312 4.96875 -3.875 C 4.65625 -4.0625 4.21875 -4.28125 3.65625 -4.53125 C 3.15625 -4.75 2.71875 -4.972656 2.34375 -5.203125 C 1.96875 -5.441406 1.640625 -5.757812 1.359375 -6.15625 C 1.085938 -6.550781 0.953125 -7.023438 0.953125 -7.578125 C 0.953125 -8.066406 1.082031 -8.507812 1.34375 -8.90625 C 1.613281 -9.300781 2 -9.609375 2.5 -9.828125 C 3 -10.054688 3.582031 -10.171875 4.25 -10.171875 C 4.664062 -10.171875 5.035156 -10.140625 5.359375 -10.078125 C 5.679688 -10.015625 6.046875 -9.929688 6.453125 -9.828125 C 6.628906 -9.765625 6.78125 -9.722656 6.90625 -9.703125 L 6.828125 -7.421875 L 6 -7.421875 L 5.734375 -9.09375 C 5.640625 -9.175781 5.445312 -9.257812 5.15625 -9.34375 C 4.875 -9.425781 4.566406 -9.46875 4.234375 -9.46875 C 3.617188 -9.46875 3.148438 -9.335938 2.828125 -9.078125 C 2.503906 -8.816406 2.34375 -8.4375 2.34375 -7.9375 C 2.34375 -7.570312 2.4375 -7.269531 2.625 -7.03125 C 2.820312 -6.789062 3.066406 -6.582031 3.359375 -6.40625 C 3.648438 -6.238281 4.109375 -6.003906 4.734375 -5.703125 C 5.328125 -5.421875 5.804688 -5.164062 6.171875 -4.9375 C 6.546875 -4.71875 6.863281 -4.425781 7.125 -4.0625 C 7.394531 -3.695312 7.53125 -3.257812 7.53125 -2.75 C 7.53125 -2.269531 7.394531 -1.804688 7.125 -1.359375 C 6.863281 -0.921875 6.457031 -0.554688 5.90625 -0.265625 C 5.363281 0.015625 4.703125 0.15625 3.921875 0.15625 Z M 3.921875 0.15625" transform="translate(115.475 112.415)"></path> </g> </g> </g> <g> <g> <g> <path d="M 5.125 0.15625 C 4.125 0.15625 3.273438 -0.0546875 2.578125 -0.484375 C 1.878906 -0.921875 1.347656 -1.523438 0.984375 -2.296875 C 0.628906 -3.078125 0.453125 -3.992188 0.453125 -5.046875 C 0.453125 -6.054688 0.660156 -6.945312 1.078125 -7.71875 C 1.503906 -8.5 2.085938 -9.101562 2.828125 -9.53125 C 3.566406 -9.957031 4.398438 -10.171875 5.328125 -10.171875 C 6.015625 -10.171875 6.847656 -10.0625 7.828125 -9.84375 L 8.28125 -9.765625 L 8.140625 -7.328125 L 7.234375 -7.328125 L 6.890625 -9.046875 C 6.765625 -9.160156 6.546875 -9.253906 6.234375 -9.328125 C 5.921875 -9.398438 5.539062 -9.4375 5.09375 -9.4375 C 4.519531 -9.4375 4.003906 -9.269531 3.546875 -8.9375 C 3.097656 -8.613281 2.742188 -8.128906 2.484375 -7.484375 C 2.222656 -6.847656 2.09375 -6.082031 2.09375 -5.1875 C 2.09375 -4.34375 2.207031 -3.570312 2.4375 -2.875 C 2.664062 -2.175781 3.007812 -1.617188 3.46875 -1.203125 C 3.925781 -0.796875 4.492188 -0.59375 5.171875 -0.59375 C 5.648438 -0.59375 6.019531 -0.632812 6.28125 -0.71875 C 6.539062 -0.800781 6.757812 -0.914062 6.9375 -1.0625 L 7.5 -2.390625 L 8.359375 -2.296875 L 8.03125 -0.359375 C 7.84375 -0.359375 7.5625 -0.296875 7.1875 -0.171875 C 6.863281 -0.078125 6.550781 0 6.25 0.0625 C 5.945312 0.125 5.570312 0.15625 5.125 0.15625 Z M 5.125 0.15625" transform="translate(115.052 127.231)"></path> </g> </g> </g> <g> <g> <g> <path d="M 1.984375 -9.21875 L 0.734375 -9.390625 L 0.734375 -10.0625 L 4.71875 -10.0625 L 4.71875 -9.390625 L 3.453125 -9.21875 L 3.453125 -0.796875 L 4.71875 -0.65625 L 4.71875 0 L 0.75 0 L 0.75 -0.65625 L 1.984375 -0.796875 Z M 1.984375 -9.21875" transform="translate(116.745 142.048)"></path> </g> </g> </g> <g> <g> <g> <path d="M 1.78125 -9.21875 L 0.71875 -9.390625 L 0.71875 -10.0625 L 2.515625 -10.0625 C 2.835938 -10.0625 3.160156 -10.078125 3.484375 -10.109375 C 3.972656 -10.140625 4.429688 -10.15625 4.859375 -10.15625 C 6.171875 -10.144531 7.097656 -9.898438 7.640625 -9.421875 C 8.179688 -8.941406 8.453125 -8.222656 8.453125 -7.265625 C 8.453125 -6.535156 8.285156 -5.90625 7.953125 -5.375 C 7.617188 -4.84375 7.15625 -4.4375 6.5625 -4.15625 C 5.96875 -3.875 5.289062 -3.734375 4.53125 -3.734375 C 4.257812 -3.734375 3.988281 -3.738281 3.71875 -3.75 C 3.445312 -3.769531 3.28125 -3.785156 3.21875 -3.796875 L 3.21875 -0.8125 L 5.078125 -0.65625 L 5.078125 0 L 0.65625 0 L 0.65625 -0.65625 L 1.78125 -0.796875 Z M 3.21875 -4.53125 C 3.476562 -4.488281 3.914062 -4.46875 4.53125 -4.46875 C 5.238281 -4.46875 5.816406 -4.679688 6.265625 -5.109375 C 6.710938 -5.546875 6.9375 -6.257812 6.9375 -7.25 C 6.9375 -8.019531 6.738281 -8.570312 6.34375 -8.90625 C 5.957031 -9.25 5.351562 -9.421875 4.53125 -9.421875 C 4.25 -9.421875 3.941406 -9.40625 3.609375 -9.375 C 3.410156 -9.351562 3.28125 -9.34375 3.21875 -9.34375 Z M 3.21875 -4.53125" transform="translate(115.122 156.864)"></path> </g> </g> </g> <g> <g> <g> <path d="M 1.78125 -9.21875 L 0.671875 -9.390625 L 0.671875 -10.0625 L 4.5625 -10.0625 L 4.5625 -9.390625 L 3.21875 -9.21875 L 3.21875 -0.796875 L 6.71875 -0.921875 L 7.515625 -3.203125 L 8.34375 -3.078125 L 7.875 0 L 0.65625 0 L 0.65625 -0.65625 L 1.78125 -0.796875 Z M 1.78125 -9.21875" transform="translate(115.193 171.68)"></path> </g> </g> </g> <g> <g> <g> <path d="M 1.984375 -9.21875 L 0.734375 -9.390625 L 0.734375 -10.0625 L 4.71875 -10.0625 L 4.71875 -9.390625 L 3.453125 -9.21875 L 3.453125 -0.796875 L 4.71875 -0.65625 L 4.71875 0 L 0.75 0 L 0.75 -0.65625 L 1.984375 -0.796875 Z M 1.984375 -9.21875" transform="translate(116.745 186.496)"></path> </g> </g> </g> <g> <g> <g> <path d="M 1.765625 -9.21875 L 0.671875 -9.390625 L 0.671875 -10.0625 L 3.203125 -10.0625 L 7.703125 -3.453125 L 8.46875 -2.015625 L 8.46875 -9.21875 L 7.28125 -9.390625 L 7.28125 -10.0625 L 10.484375 -10.0625 L 10.484375 -9.390625 L 9.40625 -9.21875 L 9.40625 0 L 8.328125 0 L 3.71875 -6.765625 L 2.6875 -8.546875 L 2.6875 -0.796875 L 3.96875 -0.65625 L 3.96875 0 L 0.671875 0 L 0.671875 -0.65625 L 1.765625 -0.8125 Z M 1.765625 -9.21875" transform="translate(114.064 201.313)"></path> </g> </g> </g> <g> <g> <g> <path d="M 3.921875 -10.140625 L 5.421875 -10.140625 L 8.703125 -0.796875 L 9.546875 -0.65625 L 9.546875 0 L 5.96875 0 L 5.96875 -0.65625 L 7.09375 -0.796875 L 6.46875 -2.796875 L 2.5 -2.796875 L 1.875 -0.796875 L 3.03125 -0.65625 L 3.03125 0 L -0.171875 0 L -0.171875 -0.65625 L 0.65625 -0.796875 Z M 4.78125 -7.984375 L 4.4375 -9.171875 L 4.125 -7.953125 L 2.75 -3.609375 L 6.203125 -3.609375 Z M 4.78125 -7.984375" transform="translate(114.816 216.13)"></path> </g> </g> </g> <g> <g> <g> <path d="M -1.75 9.21875 L -0.6875 9.390625 L -0.6875 10.0625 L -2.46875 10.0625 C -2.75 10.0625 -3.148438 10.082031 -3.671875 10.125 C -4.191406 10.15625 -4.582031 10.171875 -4.84375 10.171875 C -6.53125 10.171875 -7.78125 9.75 -8.59375 8.90625 C -9.414062 8.0625 -9.828125 6.875 -9.828125 5.34375 C -9.828125 4.28125 -9.613281 3.332031 -9.1875 2.5 C -8.769531 1.675781 -8.179688 1.035156 -7.421875 0.578125 C -6.660156 0.117188 -5.789062 -0.109375 -4.8125 -0.109375 C -4.59375 -0.109375 -4.222656 -0.0859375 -3.703125 -0.046875 C -3.160156 -0.015625 -2.753906 0 -2.484375 0 L -0.625 0 L -0.625 0.65625 L -1.75 0.796875 Z M -3.1875 0.765625 C -3.5 0.691406 -3.90625 0.65625 -4.40625 0.65625 L -4.8125 0.65625 C -5.488281 0.65625 -6.085938 0.820312 -6.609375 1.15625 C -7.128906 1.5 -7.53125 2 -7.8125 2.65625 C -8.101562 3.320312 -8.25 4.128906 -8.25 5.078125 C -8.25 6.503906 -7.9375 7.585938 -7.3125 8.328125 C -6.695312 9.066406 -5.769531 9.4375 -4.53125 9.4375 C -4.257812 9.4375 -3.945312 9.421875 -3.59375 9.390625 C -3.4375 9.359375 -3.300781 9.34375 -3.1875 9.34375 Z M -3.1875 0.765625" transform="translate(260.818 286.478)"></path> </g> </g> </g> <g> <g> <g> <path d="M -1.984375 9.21875 L -0.734375 9.390625 L -0.734375 10.0625 L -4.71875 10.0625 L -4.71875 9.390625 L -3.453125 9.21875 L -3.453125 0.796875 L -4.71875 0.65625 L -4.71875 0 L -0.75 0 L -0.75 0.65625 L -1.984375 0.796875 Z M -1.984375 9.21875" transform="translate(258.39 271.662)"></path> </g> </g> </g> <g> <g> <g> <path d="M -3.921875 -0.15625 C -3.453125 -0.15625 -3.03125 -0.113281 -2.65625 -0.03125 C -2.289062 0.0507812 -1.890625 0.160156 -1.453125 0.296875 C -1.179688 0.398438 -0.976562 0.453125 -0.84375 0.453125 L -0.953125 2.90625 L -1.8125 2.90625 L -2.046875 1.15625 C -2.203125 1.007812 -2.453125 0.878906 -2.796875 0.765625 C -3.140625 0.648438 -3.519531 0.59375 -3.9375 0.59375 C -4.625 0.59375 -5.144531 0.742188 -5.5 1.046875 C -5.863281 1.359375 -6.046875 1.785156 -6.046875 2.328125 C -6.046875 2.679688 -5.945312 2.984375 -5.75 3.234375 C -5.550781 3.484375 -5.289062 3.695312 -4.96875 3.875 C -4.65625 4.0625 -4.21875 4.28125 -3.65625 4.53125 C -3.15625 4.75 -2.71875 4.972656 -2.34375 5.203125 C -1.96875 5.441406 -1.640625 5.757812 -1.359375 6.15625 C -1.085938 6.550781 -0.953125 7.023438 -0.953125 7.578125 C -0.953125 8.066406 -1.082031 8.507812 -1.34375 8.90625 C -1.613281 9.300781 -2 9.609375 -2.5 9.828125 C -3 10.054688 -3.582031 10.171875 -4.25 10.171875 C -4.664062 10.171875 -5.035156 10.140625 -5.359375 10.078125 C -5.679688 10.015625 -6.046875 9.929688 -6.453125 9.828125 C -6.628906 9.765625 -6.78125 9.722656 -6.90625 9.703125 L -6.828125 7.421875 L -6 7.421875 L -5.734375 9.09375 C -5.640625 9.175781 -5.445312 9.257812 -5.15625 9.34375 C -4.875 9.425781 -4.566406 9.46875 -4.234375 9.46875 C -3.617188 9.46875 -3.148438 9.335938 -2.828125 9.078125 C -2.503906 8.816406 -2.34375 8.4375 -2.34375 7.9375 C -2.34375 7.570312 -2.4375 7.269531 -2.625 7.03125 C -2.820312 6.789062 -3.066406 6.582031 -3.359375 6.40625 C -3.648438 6.238281 -4.109375 6.003906 -4.734375 5.703125 C -5.328125 5.421875 -5.804688 5.164062 -6.171875 4.9375 C -6.546875 4.71875 -6.863281 4.425781 -7.125 4.0625 C -7.394531 3.695312 -7.53125 3.257812 -7.53125 2.75 C -7.53125 2.269531 -7.394531 1.804688 -7.125 1.359375 C -6.863281 0.921875 -6.457031 0.554688 -5.90625 0.265625 C -5.363281 -0.015625 -4.703125 -0.15625 -3.921875 -0.15625 Z M -3.921875 -0.15625" transform="translate(259.689 256.845)"></path> </g> </g> </g> <g> <g> <g> <path d="M -5.125 -0.15625 C -4.125 -0.15625 -3.273438 0.0546875 -2.578125 0.484375 C -1.878906 0.921875 -1.347656 1.523438 -0.984375 2.296875 C -0.628906 3.078125 -0.453125 3.992188 -0.453125 5.046875 C -0.453125 6.054688 -0.660156 6.945312 -1.078125 7.71875 C -1.503906 8.5 -2.085938 9.101562 -2.828125 9.53125 C -3.566406 9.957031 -4.398438 10.171875 -5.328125 10.171875 C -6.015625 10.171875 -6.847656 10.0625 -7.828125 9.84375 L -8.28125 9.765625 L -8.140625 7.328125 L -7.234375 7.328125 L -6.890625 9.046875 C -6.765625 9.160156 -6.546875 9.253906 -6.234375 9.328125 C -5.921875 9.398438 -5.539062 9.4375 -5.09375 9.4375 C -4.519531 9.4375 -4.003906 9.269531 -3.546875 8.9375 C -3.097656 8.613281 -2.742188 8.128906 -2.484375 7.484375 C -2.222656 6.847656 -2.09375 6.082031 -2.09375 5.1875 C -2.09375 4.34375 -2.207031 3.570312 -2.4375 2.875 C -2.664062 2.175781 -3.007812 1.617188 -3.46875 1.203125 C -3.925781 0.796875 -4.492188 0.59375 -5.171875 0.59375 C -5.648438 0.59375 -6.019531 0.632812 -6.28125 0.71875 C -6.539062 0.800781 -6.757812 0.914062 -6.9375 1.0625 L -7.5 2.390625 L -8.359375 2.296875 L -8.03125 0.359375 C -7.84375 0.359375 -7.5625 0.296875 -7.1875 0.171875 C -6.863281 0.078125 -6.550781 0 -6.25 -0.0625 C -5.945312 -0.125 -5.570312 -0.15625 -5.125 -0.15625 Z M -5.125 -0.15625" transform="translate(260.112 242.03)"></path> </g> </g> </g> <g> <g> <g> <path d="M -1.984375 9.21875 L -0.734375 9.390625 L -0.734375 10.0625 L -4.71875 10.0625 L -4.71875 9.390625 L -3.453125 9.21875 L -3.453125 0.796875 L -4.71875 0.65625 L -4.71875 0 L -0.75 0 L -0.75 0.65625 L -1.984375 0.796875 Z M -1.984375 9.21875" transform="translate(258.419 227.213)"></path> </g> </g> </g> <g> <g> <g> <path d="M -1.78125 9.21875 L -0.71875 9.390625 L -0.71875 10.0625 L -2.515625 10.0625 C -2.835938 10.0625 -3.160156 10.078125 -3.484375 10.109375 C -3.972656 10.140625 -4.429688 10.15625 -4.859375 10.15625 C -6.171875 10.144531 -7.097656 9.898438 -7.640625 9.421875 C -8.179688 8.941406 -8.453125 8.222656 -8.453125 7.265625 C -8.453125 6.535156 -8.285156 5.90625 -7.953125 5.375 C -7.617188 4.84375 -7.15625 4.4375 -6.5625 4.15625 C -5.96875 3.875 -5.289062 3.734375 -4.53125 3.734375 C -4.257812 3.734375 -3.988281 3.738281 -3.71875 3.75 C -3.445312 3.769531 -3.28125 3.785156 -3.21875 3.796875 L -3.21875 0.8125 L -5.078125 0.65625 L -5.078125 0 L -0.65625 0 L -0.65625 0.65625 L -1.78125 0.796875 Z M -3.21875 4.53125 C -3.476562 4.488281 -3.914062 4.46875 -4.53125 4.46875 C -5.238281 4.46875 -5.816406 4.679688 -6.265625 5.109375 C -6.710938 5.546875 -6.9375 6.257812 -6.9375 7.25 C -6.9375 8.019531 -6.738281 8.570312 -6.34375 8.90625 C -5.957031 9.25 -5.351562 9.421875 -4.53125 9.421875 C -4.25 9.421875 -3.941406 9.40625 -3.609375 9.375 C -3.410156 9.351562 -3.28125 9.34375 -3.21875 9.34375 Z M -3.21875 4.53125" transform="translate(260.042 212.397)"></path> </g> </g> </g> <g> <g> <g> <path d="M -1.78125 9.21875 L -0.671875 9.390625 L -0.671875 10.0625 L -4.5625 10.0625 L -4.5625 9.390625 L -3.21875 9.21875 L -3.21875 0.796875 L -6.71875 0.921875 L -7.515625 3.203125 L -8.34375 3.078125 L -7.875 0 L -0.65625 0 L -0.65625 0.65625 L -1.78125 0.796875 Z M -1.78125 9.21875" transform="translate(259.97 197.58)"></path> </g> </g> </g> <g> <g> <g> <path d="M -1.984375 9.21875 L -0.734375 9.390625 L -0.734375 10.0625 L -4.71875 10.0625 L -4.71875 9.390625 L -3.453125 9.21875 L -3.453125 0.796875 L -4.71875 0.65625 L -4.71875 0 L -0.75 0 L -0.75 0.65625 L -1.984375 0.796875 Z M -1.984375 9.21875" transform="translate(258.419 182.764)"></path> </g> </g> </g> <g> <g> <g> <path d="M -1.765625 9.21875 L -0.671875 9.390625 L -0.671875 10.0625 L -3.203125 10.0625 L -7.703125 3.453125 L -8.46875 2.015625 L -8.46875 9.21875 L -7.28125 9.390625 L -7.28125 10.0625 L -10.484375 10.0625 L -10.484375 9.390625 L -9.40625 9.21875 L -9.40625 0 L -8.328125 0 L -3.71875 6.765625 L -2.6875 8.546875 L -2.6875 0.796875 L -3.96875 0.65625 L -3.96875 0 L -0.671875 0 L -0.671875 0.65625 L -1.765625 0.8125 Z M -1.765625 9.21875" transform="translate(261.1 167.948)"></path> </g> </g> </g> <g> <g> <g> <path d="M -3.921875 10.140625 L -5.421875 10.140625 L -8.703125 0.796875 L -9.546875 0.65625 L -9.546875 0 L -5.96875 0 L -5.96875 0.65625 L -7.09375 0.796875 L -6.46875 2.796875 L -2.5 2.796875 L -1.875 0.796875 L -3.03125 0.65625 L -3.03125 0 L 0.171875 0 L 0.171875 0.65625 L -0.65625 0.796875 Z M -4.78125 7.984375 L -4.4375 9.171875 L -4.125 7.953125 L -2.75 3.609375 L -6.203125 3.609375 Z M -4.78125 7.984375" transform="translate(260.348 153.131)"></path> </g> </g> </g> </svg> 