<?xml version="1.0" encoding="UTF-8"?> <svg xmlns="http://www.w3.org/2000/svg" width="375" viewBox="0 0 375 375" height="375"> <defs> <clipPath id="a"> <path d="M 137.863281 136.25 L 237.007812 136.25 L 237.007812 195 L 137.863281 195 Z M 137.863281 136.25"></path> </clipPath> </defs> <path fill="#FFF" d="M-37.5 -37.5H412.5V412.5H-37.5z"></path> <path fill="#FFF" d="M-37.5 -37.5H412.5V412.5H-37.5z"></path> <path fill="#FFF" d="M-37.5 -37.5H412.5V412.5H-37.5z"></path> <path fill="#9AA7B2" d="M 270.722656 300.324219 C 270.722656 307.675781 264.332031 313.644531 257.511719 313.644531 L 114.382812 313.644531 C 112.464844 313.644531 110.546875 313.21875 108.84375 312.472656 C 111.082031 314.816406 114.171875 316.199219 117.785156 316.199219 L 260.707031 316.199219 C 267.421875 316.199219 272.960938 310.660156 272.960938 303.945312 L 272.960938 74.675781 C 272.960938 71.585938 271.789062 68.816406 269.976562 66.683594 C 270.511719 68.070312 270.722656 69.5625 270.722656 71.054688 L 270.722656 300.324219"></path> <path fill="#FFF" d="M 114.382812 312.578125 L 257.300781 312.578125 C 264.011719 312.578125 269.550781 307.039062 269.550781 300.324219 L 269.550781 71.054688 C 269.550781 64.339844 264.011719 58.800781 257.300781 58.800781 L 114.382812 58.800781 C 107.671875 58.800781 102.132812 64.339844 102.132812 71.054688 L 102.132812 300.324219 C 102.132812 307.144531 107.671875 312.578125 114.382812 312.578125"></path> <path fill="#77838D" d="M 268.59375 64.019531 C 266.25 60.292969 262.09375 57.734375 257.300781 57.734375 L 114.382812 57.734375 C 107.03125 57.734375 101.066406 63.699219 101.066406 71.054688 L 101.066406 300.324219 C 101.066406 304.691406 103.195312 308.527344 106.394531 310.980469 C 108.738281 314.707031 112.890625 317.265625 117.925781 317.265625 L 260.601562 317.265625 C 267.953125 317.265625 273.921875 311.300781 273.921875 303.945312 L 273.921875 74.675781 C 273.921875 70.308594 271.789062 66.472656 268.59375 64.019531 M 102.132812 300.324219 L 102.132812 71.054688 C 102.132812 64.339844 107.671875 58.800781 114.382812 58.800781 L 257.300781 58.800781 C 264.011719 58.800781 269.550781 64.339844 269.550781 71.054688 L 269.550781 300.324219 C 269.550781 307.039062 264.011719 312.578125 257.300781 312.578125 L 114.382812 312.578125 C 107.671875 312.578125 102.132812 307.144531 102.132812 300.324219 M 272.960938 303.945312 C 272.960938 310.660156 267.3125 316.199219 260.601562 316.199219 L 117.925781 316.199219 C 114.277344 316.199219 111.1875 314.816406 108.949219 312.472656 C 110.65625 313.21875 112.464844 313.644531 114.488281 313.644531 L 257.40625 313.644531 C 264.757812 313.644531 270.722656 307.675781 270.722656 300.324219 L 270.722656 71.054688 C 270.722656 69.5625 270.402344 68.070312 269.976562 66.683594 C 271.789062 68.816406 272.960938 71.585938 272.960938 74.675781 L 272.960938 303.945312"></path> <path fill="#100F0D" d="M 178.011719 218.902344 C 178.074219 218.882812 178.144531 218.910156 178.199219 218.957031 C 180.859375 221.214844 184.085938 222.707031 187.535156 223.257812 C 188.066406 223.347656 188.605469 223.347656 189.136719 223.257812 C 192.578125 222.707031 195.800781 221.214844 198.472656 218.957031 C 198.578125 218.863281 198.730469 218.882812 198.820312 218.992188 C 198.875 219.054688 198.894531 219.136719 198.875 219.214844 C 197.742188 223.695312 194.789062 227.503906 190.714844 229.699219 C 189.226562 230.5 187.429688 230.5 185.9375 229.699219 C 181.875 227.503906 178.910156 223.695312 177.785156 219.214844 C 177.75 219.070312 177.832031 218.9375 177.964844 218.902344 C 177.976562 218.902344 177.992188 218.902344 178 218.902344 Z M 177.949219 205.910156 C 181.210938 205.773438 184.265625 207.484375 185.863281 210.328125 C 185.917969 210.445312 185.882812 210.570312 185.785156 210.640625 L 185.808594 210.640625 C 182.496094 213.457031 177.535156 213.042969 174.730469 209.722656 C 174.199219 209.09375 173.769531 208.390625 173.464844 207.636719 C 173.417969 207.527344 173.457031 207.402344 173.554688 207.332031 C 174.867188 206.464844 176.382812 205.980469 177.949219 205.910156 Z M 198.246094 205.910156 C 200 205.871094 201.714844 206.375 203.171875 207.332031 C 203.269531 207.402344 203.316406 207.527344 203.269531 207.636719 C 201.605469 211.660156 197.015625 213.574219 193 211.910156 C 192.246094 211.605469 191.535156 211.171875 190.914062 210.640625 C 190.816406 210.578125 190.78125 210.445312 190.832031 210.328125 L 190.859375 210.328125 C 192.371094 207.644531 195.171875 205.960938 198.246094 205.910156 Z M 165.988281 198.746094 C 164.925781 212.046875 169.996094 225.109375 179.746094 234.214844 C 184.578125 238.722656 192.082031 238.722656 196.925781 234.214844 C 206.675781 225.109375 211.742188 212.046875 210.683594 198.746094 L 165.988281 198.746094"></path> <g clip-path="url(#a)"> <path fill="#100F0D" d="M 202.441406 173.183594 C 194.699219 165.519531 193.054688 153.605469 198.425781 144.125 C 200.3125 145.699219 203.117188 145.445312 204.691406 143.554688 C 206.261719 141.667969 206.011719 138.859375 204.125 137.285156 C 202.238281 135.710938 199.425781 135.960938 197.851562 137.851562 C 196.65625 139.300781 196.484375 141.332031 197.4375 142.953125 C 184.769531 146.246094 175.53125 157.152344 174.363281 170.199219 C 168.269531 160.964844 155.859375 158.4375 146.652344 164.539062 C 146.632812 164.546875 146.613281 164.554688 146.597656 164.566406 C 145.941406 162.199219 143.488281 160.804688 141.125 161.46875 C 138.753906 162.128906 137.367188 164.582031 138.023438 166.949219 C 138.679688 169.324219 141.132812 170.710938 143.503906 170.054688 C 145.277344 169.558594 146.5625 168.019531 146.742188 166.183594 C 157.15625 172.320312 164.191406 182.894531 165.835938 194.878906 L 210.84375 194.878906 C 213.601562 186.277344 219.9375 179.304688 228.230469 175.742188 C 228.617188 178.167969 230.902344 179.824219 233.328125 179.429688 C 235.753906 179.042969 237.40625 176.757812 237.011719 174.328125 C 236.625 171.898438 234.34375 170.25 231.917969 170.640625 C 230.453125 170.871094 229.203125 171.828125 228.582031 173.175781 C 221.511719 165.949219 209.929688 165.835938 202.710938 172.914062 C 202.621094 173.003906 202.53125 173.09375 202.441406 173.195312 L 202.441406 173.183594"></path> </g> <g> <g> <g> <path d="M 6.28125 0.1875 C 5.0625 0.1875 4.019531 -0.0703125 3.15625 -0.59375 C 2.300781 -1.125 1.648438 -1.863281 1.203125 -2.8125 C 0.765625 -3.769531 0.546875 -4.894531 0.546875 -6.1875 C 0.546875 -7.425781 0.804688 -8.519531 1.328125 -9.46875 C 1.847656 -10.425781 2.5625 -11.164062 3.46875 -11.6875 C 4.382812 -12.21875 5.40625 -12.484375 6.53125 -12.484375 C 7.382812 -12.484375 8.410156 -12.351562 9.609375 -12.09375 L 10.15625 -11.984375 L 9.984375 -9 L 8.875 -9 L 8.46875 -11.109375 C 8.3125 -11.242188 8.039062 -11.359375 7.65625 -11.453125 C 7.269531 -11.546875 6.800781 -11.59375 6.25 -11.59375 C 5.539062 -11.59375 4.910156 -11.390625 4.359375 -10.984375 C 3.804688 -10.578125 3.367188 -9.976562 3.046875 -9.1875 C 2.734375 -8.40625 2.578125 -7.46875 2.578125 -6.375 C 2.578125 -5.320312 2.710938 -4.367188 2.984375 -3.515625 C 3.265625 -2.671875 3.6875 -1.992188 4.25 -1.484375 C 4.820312 -0.984375 5.519531 -0.734375 6.34375 -0.734375 C 6.9375 -0.734375 7.390625 -0.78125 7.703125 -0.875 C 8.015625 -0.976562 8.285156 -1.125 8.515625 -1.3125 L 9.203125 -2.9375 L 10.25 -2.8125 L 9.859375 -0.453125 C 9.628906 -0.441406 9.285156 -0.363281 8.828125 -0.21875 C 8.429688 -0.09375 8.046875 0.00390625 7.671875 0.078125 C 7.296875 0.148438 6.832031 0.1875 6.28125 0.1875 Z M 6.28125 0.1875" transform="translate(113.3 85.198)"></path> </g> </g> </g> <g> <g> <g> <path d="M 0.765625 -0.8125 L 2.140625 -0.984375 L 2.140625 -11.328125 L 0.84375 -11.53125 L 0.84375 -12.359375 L 3.03125 -12.359375 C 3.332031 -12.359375 3.753906 -12.378906 4.296875 -12.421875 C 4.847656 -12.460938 5.28125 -12.484375 5.59375 -12.484375 C 7.21875 -12.484375 8.375 -12.21875 9.0625 -11.6875 C 9.757812 -11.164062 10.109375 -10.335938 10.109375 -9.203125 C 10.109375 -8.421875 9.890625 -7.703125 9.453125 -7.046875 C 9.015625 -6.390625 8.410156 -5.945312 7.640625 -5.71875 C 7.992188 -5.53125 8.320312 -5.207031 8.625 -4.75 C 8.9375 -4.289062 9.316406 -3.648438 9.765625 -2.828125 C 10.109375 -2.203125 10.367188 -1.742188 10.546875 -1.453125 C 10.734375 -1.171875 10.910156 -1.015625 11.078125 -0.984375 L 11.71875 -0.8125 L 11.71875 0 L 9.421875 0 C 9.242188 0 9.046875 -0.1875 8.828125 -0.5625 C 8.609375 -0.945312 8.316406 -1.539062 7.953125 -2.34375 C 7.546875 -3.21875 7.195312 -3.910156 6.90625 -4.421875 C 6.613281 -4.941406 6.320312 -5.273438 6.03125 -5.421875 C 4.84375 -5.421875 4.140625 -5.425781 3.921875 -5.4375 L 3.921875 -0.984375 L 5.5625 -0.8125 L 5.5625 0 L 0.765625 0 Z M 5.90625 -6.3125 C 6.613281 -6.3125 7.171875 -6.546875 7.578125 -7.015625 C 7.992188 -7.484375 8.203125 -8.175781 8.203125 -9.09375 C 8.203125 -9.90625 7.992188 -10.523438 7.578125 -10.953125 C 7.160156 -11.378906 6.441406 -11.59375 5.421875 -11.59375 C 5.066406 -11.59375 4.710938 -11.566406 4.359375 -11.515625 C 4.128906 -11.492188 3.984375 -11.484375 3.921875 -11.484375 L 3.921875 -6.328125 C 4.085938 -6.316406 4.429688 -6.3125 4.953125 -6.3125 Z M 5.90625 -6.3125" transform="translate(112.868 103.38)"></path> </g> </g> </g> <g> <g> <g> <path d="M 2.140625 -11.328125 L 0.78125 -11.515625 L 0.78125 -12.359375 L 9.25 -12.359375 L 9.46875 -9.78125 L 8.53125 -9.78125 L 8.046875 -11.390625 L 3.921875 -11.484375 L 3.921875 -6.796875 L 6.703125 -6.84375 L 6.9375 -8.234375 L 7.84375 -8.234375 L 7.84375 -4.40625 L 6.9375 -4.40625 L 6.703125 -5.828125 L 3.921875 -5.890625 L 3.921875 -0.9375 L 8.609375 -1.09375 L 9.5 -3.1875 L 10.46875 -2.890625 L 9.984375 0 L 0.765625 0 L 0.765625 -0.8125 L 2.140625 -0.984375 Z M 2.140625 -11.328125" transform="translate(113.387 121.56)"></path> </g> </g> </g> <g> <g> <g> <path d="M 2.140625 -11.328125 L 0.84375 -11.515625 L 0.84375 -12.359375 L 3.03125 -12.359375 C 3.375 -12.359375 3.863281 -12.378906 4.5 -12.421875 C 5.144531 -12.460938 5.628906 -12.484375 5.953125 -12.484375 C 8.015625 -12.484375 9.546875 -11.960938 10.546875 -10.921875 C 11.546875 -9.890625 12.046875 -8.4375 12.046875 -6.5625 C 12.046875 -5.257812 11.785156 -4.097656 11.265625 -3.078125 C 10.753906 -2.066406 10.035156 -1.273438 9.109375 -0.703125 C 8.179688 -0.140625 7.113281 0.140625 5.90625 0.140625 C 5.632812 0.140625 5.175781 0.113281 4.53125 0.0625 C 3.875 0.0195312 3.378906 0 3.046875 0 L 0.765625 0 L 0.765625 -0.8125 L 2.140625 -0.984375 Z M 3.90625 -0.9375 C 4.289062 -0.84375 4.789062 -0.796875 5.40625 -0.796875 L 5.90625 -0.796875 C 6.738281 -0.804688 7.472656 -1.015625 8.109375 -1.421875 C 8.742188 -1.835938 9.238281 -2.453125 9.59375 -3.265625 C 9.945312 -4.078125 10.125 -5.066406 10.125 -6.234375 C 10.125 -7.984375 9.742188 -9.3125 8.984375 -10.21875 C 8.222656 -11.132812 7.078125 -11.59375 5.546875 -11.59375 C 5.234375 -11.59375 4.851562 -11.566406 4.40625 -11.515625 C 4.21875 -11.484375 4.050781 -11.46875 3.90625 -11.46875 Z M 3.90625 -0.9375" transform="translate(112.435 139.743)"></path> </g> </g> </g> <g> <g> <g> <path d="M 5.796875 0.1875 C 4.671875 0.1875 3.71875 -0.0703125 2.9375 -0.59375 C 2.15625 -1.113281 1.5625 -1.847656 1.15625 -2.796875 C 0.757812 -3.742188 0.5625 -4.84375 0.5625 -6.09375 C 0.5625 -7.375 0.800781 -8.492188 1.28125 -9.453125 C 1.769531 -10.421875 2.429688 -11.164062 3.265625 -11.6875 C 4.109375 -12.21875 5.0625 -12.484375 6.125 -12.484375 C 7.851562 -12.484375 9.171875 -11.9375 10.078125 -10.84375 C 10.992188 -9.75 11.453125 -8.238281 11.453125 -6.3125 C 11.453125 -5.019531 11.203125 -3.882812 10.703125 -2.90625 C 10.210938 -1.925781 9.535156 -1.164062 8.671875 -0.625 C 7.816406 -0.0820312 6.859375 0.1875 5.796875 0.1875 Z M 6.015625 -11.625 C 4.941406 -11.625 4.09375 -11.15625 3.46875 -10.21875 C 2.851562 -9.28125 2.546875 -7.90625 2.546875 -6.09375 C 2.546875 -4.4375 2.847656 -3.125 3.453125 -2.15625 C 4.054688 -1.1875 4.898438 -0.703125 5.984375 -0.703125 C 7.046875 -0.703125 7.890625 -1.179688 8.515625 -2.140625 C 9.140625 -3.109375 9.453125 -4.492188 9.453125 -6.296875 C 9.453125 -7.972656 9.15625 -9.28125 8.5625 -10.21875 C 7.96875 -11.15625 7.117188 -11.625 6.015625 -11.625 Z M 6.015625 -11.625" transform="translate(112.762 157.924)"></path> </g> </g> </g> <g> <g> <g> <path d="M -6.28125 -0.1875 C -5.0625 -0.1875 -4.019531 0.0703125 -3.15625 0.59375 C -2.300781 1.125 -1.648438 1.863281 -1.203125 2.8125 C -0.765625 3.769531 -0.546875 4.894531 -0.546875 6.1875 C -0.546875 7.425781 -0.804688 8.519531 -1.328125 9.46875 C -1.847656 10.425781 -2.5625 11.164062 -3.46875 11.6875 C -4.382812 12.21875 -5.40625 12.484375 -6.53125 12.484375 C -7.382812 12.484375 -8.410156 12.351562 -9.609375 12.09375 L -10.15625 11.984375 L -9.984375 9 L -8.875 9 L -8.46875 11.109375 C -8.3125 11.242188 -8.039062 11.359375 -7.65625 11.453125 C -7.269531 11.546875 -6.800781 11.59375 -6.25 11.59375 C -5.539062 11.59375 -4.910156 11.390625 -4.359375 10.984375 C -3.804688 10.578125 -3.367188 9.976562 -3.046875 9.1875 C -2.734375 8.40625 -2.578125 7.46875 -2.578125 6.375 C -2.578125 5.320312 -2.710938 4.367188 -2.984375 3.515625 C -3.265625 2.671875 -3.6875 1.992188 -4.25 1.484375 C -4.820312 0.984375 -5.519531 0.734375 -6.34375 0.734375 C -6.9375 0.734375 -7.390625 0.78125 -7.703125 0.875 C -8.015625 0.976562 -8.285156 1.125 -8.515625 1.3125 L -9.203125 2.9375 L -10.25 2.8125 L -9.859375 0.453125 C -9.628906 0.441406 -9.285156 0.363281 -8.828125 0.21875 C -8.429688 0.09375 -8.046875 -0.00390625 -7.671875 -0.078125 C -7.296875 -0.148438 -6.832031 -0.1875 -6.28125 -0.1875 Z M -6.28125 -0.1875" transform="translate(257.083 288.265)"></path> </g> </g> </g> <g> <g> <g> <path d="M -0.765625 0.8125 L -2.140625 0.984375 L -2.140625 11.328125 L -0.84375 11.53125 L -0.84375 12.359375 L -3.03125 12.359375 C -3.332031 12.359375 -3.753906 12.378906 -4.296875 12.421875 C -4.847656 12.460938 -5.28125 12.484375 -5.59375 12.484375 C -7.21875 12.484375 -8.375 12.21875 -9.0625 11.6875 C -9.757812 11.164062 -10.109375 10.335938 -10.109375 9.203125 C -10.109375 8.421875 -9.890625 7.703125 -9.453125 7.046875 C -9.015625 6.390625 -8.410156 5.945312 -7.640625 5.71875 C -7.992188 5.53125 -8.320312 5.207031 -8.625 4.75 C -8.9375 4.289062 -9.316406 3.648438 -9.765625 2.828125 C -10.109375 2.203125 -10.367188 1.742188 -10.546875 1.453125 C -10.734375 1.171875 -10.910156 1.015625 -11.078125 0.984375 L -11.71875 0.8125 L -11.71875 0 L -9.421875 0 C -9.242188 0 -9.046875 0.1875 -8.828125 0.5625 C -8.609375 0.945312 -8.316406 1.539062 -7.953125 2.34375 C -7.546875 3.21875 -7.195312 3.910156 -6.90625 4.421875 C -6.613281 4.941406 -6.320312 5.273438 -6.03125 5.421875 C -4.84375 5.421875 -4.140625 5.425781 -3.921875 5.4375 L -3.921875 0.984375 L -5.5625 0.8125 L -5.5625 0 L -0.765625 0 Z M -5.90625 6.3125 C -6.613281 6.3125 -7.171875 6.546875 -7.578125 7.015625 C -7.992188 7.484375 -8.203125 8.175781 -8.203125 9.09375 C -8.203125 9.90625 -7.992188 10.523438 -7.578125 10.953125 C -7.160156 11.378906 -6.441406 11.59375 -5.421875 11.59375 C -5.066406 11.59375 -4.710938 11.566406 -4.359375 11.515625 C -4.128906 11.492188 -3.984375 11.484375 -3.921875 11.484375 L -3.921875 6.328125 C -4.085938 6.316406 -4.429688 6.3125 -4.953125 6.3125 Z M -5.90625 6.3125" transform="translate(257.516 270.084)"></path> </g> </g> </g> <g> <g> <g> <path d="M -2.140625 11.328125 L -0.78125 11.515625 L -0.78125 12.359375 L -9.25 12.359375 L -9.46875 9.78125 L -8.53125 9.78125 L -8.046875 11.390625 L -3.921875 11.484375 L -3.921875 6.796875 L -6.703125 6.84375 L -6.9375 8.234375 L -7.84375 8.234375 L -7.84375 4.40625 L -6.9375 4.40625 L -6.703125 5.828125 L -3.921875 5.890625 L -3.921875 0.9375 L -8.609375 1.09375 L -9.5 3.1875 L -10.46875 2.890625 L -9.984375 0 L -0.765625 0 L -0.765625 0.8125 L -2.140625 0.984375 Z M -2.140625 11.328125" transform="translate(256.996 251.902)"></path> </g> </g> </g> <g> <g> <g> <path d="M -2.140625 11.328125 L -0.84375 11.515625 L -0.84375 12.359375 L -3.03125 12.359375 C -3.375 12.359375 -3.863281 12.378906 -4.5 12.421875 C -5.144531 12.460938 -5.628906 12.484375 -5.953125 12.484375 C -8.015625 12.484375 -9.546875 11.960938 -10.546875 10.921875 C -11.546875 9.890625 -12.046875 8.4375 -12.046875 6.5625 C -12.046875 5.257812 -11.785156 4.097656 -11.265625 3.078125 C -10.753906 2.066406 -10.035156 1.273438 -9.109375 0.703125 C -8.179688 0.140625 -7.113281 -0.140625 -5.90625 -0.140625 C -5.632812 -0.140625 -5.175781 -0.113281 -4.53125 -0.0625 C -3.875 -0.0195312 -3.378906 0 -3.046875 0 L -0.765625 0 L -0.765625 0.8125 L -2.140625 0.984375 Z M -3.90625 0.9375 C -4.289062 0.84375 -4.789062 0.796875 -5.40625 0.796875 L -5.90625 0.796875 C -6.738281 0.804688 -7.472656 1.015625 -8.109375 1.421875 C -8.742188 1.835938 -9.238281 2.453125 -9.59375 3.265625 C -9.945312 4.078125 -10.125 5.066406 -10.125 6.234375 C -10.125 7.984375 -9.742188 9.3125 -8.984375 10.21875 C -8.222656 11.132812 -7.078125 11.59375 -5.546875 11.59375 C -5.234375 11.59375 -4.851562 11.566406 -4.40625 11.515625 C -4.21875 11.484375 -4.050781 11.46875 -3.90625 11.46875 Z M -3.90625 0.9375" transform="translate(257.949 233.72)"></path> </g> </g> </g> <g> <g> <g> <path d="M -5.796875 -0.1875 C -4.671875 -0.1875 -3.71875 0.0703125 -2.9375 0.59375 C -2.15625 1.113281 -1.5625 1.847656 -1.15625 2.796875 C -0.757812 3.742188 -0.5625 4.84375 -0.5625 6.09375 C -0.5625 7.375 -0.800781 8.492188 -1.28125 9.453125 C -1.769531 10.421875 -2.429688 11.164062 -3.265625 11.6875 C -4.109375 12.21875 -5.0625 12.484375 -6.125 12.484375 C -7.851562 12.484375 -9.171875 11.9375 -10.078125 10.84375 C -10.992188 9.75 -11.453125 8.238281 -11.453125 6.3125 C -11.453125 5.019531 -11.203125 3.882812 -10.703125 2.90625 C -10.210938 1.925781 -9.535156 1.164062 -8.671875 0.625 C -7.816406 0.0820312 -6.859375 -0.1875 -5.796875 -0.1875 Z M -6.015625 11.625 C -4.941406 11.625 -4.09375 11.15625 -3.46875 10.21875 C -2.851562 9.28125 -2.546875 7.90625 -2.546875 6.09375 C -2.546875 4.4375 -2.847656 3.125 -3.453125 2.15625 C -4.054688 1.1875 -4.898438 0.703125 -5.984375 0.703125 C -7.046875 0.703125 -7.890625 1.179688 -8.515625 2.140625 C -9.140625 3.109375 -9.453125 4.492188 -9.453125 6.296875 C -9.453125 7.972656 -9.15625 9.28125 -8.5625 10.21875 C -7.96875 11.15625 -7.117188 11.625 -6.015625 11.625 Z M -6.015625 11.625" transform="translate(257.621 215.539)"></path> </g> </g> </g> </svg> 