<?xml version="1.0" encoding="utf-8"?>
<!-- Generator: Adobe Illustrator 25.0.1, SVG Export Plug-In . SVG Version: 6.00 Build 0)  -->
<svg version="1.1" id="Layer_1" xmlns="http://www.w3.org/2000/svg" xmlns:xlink="http://www.w3.org/1999/xlink" x="0px" y="0px"
	 viewBox="0 0 1920 1080" style="enable-background:new 0 0 1920 1080;" xml:space="preserve">
<style type="text/css">
	.st0{fill:#FFFFFF;}
	.st1{fill:none;stroke:#FFFFFF;stroke-width:0.5;stroke-miterlimit:10;}
	.st2{fill:none;stroke:#FFFFFF;stroke-miterlimit:10;}
</style>
<g>
	<path class="st0" d="M743.22,797.5c-1.63,0-2.96-1.33-2.96-2.96c0-1.63,1.33-2.96,2.96-2.96c1.63,0,2.96,1.33,2.96,2.96
		C746.19,796.17,744.86,797.5,743.22,797.5z"/>
	<path class="st0" d="M743.22,792.08c1.36,0,2.46,1.1,2.46,2.46s-1.1,2.46-2.46,2.46s-2.46-1.1-2.46-2.46
		S741.87,792.08,743.22,792.08 M743.22,791.08c-1.91,0-3.46,1.55-3.46,3.46c0,1.91,1.55,3.46,3.46,3.46c1.91,0,3.46-1.55,3.46-3.46
		C746.69,792.63,745.14,791.08,743.22,791.08L743.22,791.08z"/>
</g>
<g>
	<path class="st0" d="M722.46,693.68c-1.63,0-2.96-1.33-2.96-2.96c0-1.63,1.33-2.96,2.96-2.96c1.63,0,2.96,1.33,2.96,2.96
		C725.42,692.35,724.09,693.68,722.46,693.68z"/>
	<path class="st0" d="M722.46,688.26c1.36,0,2.46,1.1,2.46,2.46s-1.1,2.46-2.46,2.46s-2.46-1.1-2.46-2.46
		S721.1,688.26,722.46,688.26 M722.46,687.26c-1.91,0-3.46,1.55-3.46,3.46c0,1.91,1.55,3.46,3.46,3.46c1.91,0,3.46-1.55,3.46-3.46
		C725.92,688.81,724.37,687.26,722.46,687.26L722.46,687.26z"/>
</g>
<g>
	<circle class="st0" cx="765" cy="661" r="3.5"/>
	<path class="st0" d="M765,658c1.65,0,3,1.35,3,3s-1.35,3-3,3s-3-1.35-3-3S763.35,658,765,658 M765,657c-2.21,0-4,1.79-4,4
		s1.79,4,4,4s4-1.79,4-4S767.21,657,765,657L765,657z"/>
</g>
<g>
	<path class="st0" d="M770,584.5c-0.21,0-0.42-0.03-0.63-0.08c-1.33-0.35-2.14-1.71-1.79-3.05c0.29-1.1,1.28-1.87,2.42-1.87
		c0.21,0,0.42,0.03,0.63,0.08c1.33,0.35,2.14,1.71,1.79,3.05C772.13,583.73,771.14,584.5,770,584.5z"/>
	<path class="st0" d="M770,580L770,580c0.17,0,0.34,0.02,0.51,0.07c0.52,0.13,0.95,0.46,1.22,0.92s0.35,1,0.21,1.52
		c-0.23,0.88-1.02,1.5-1.93,1.5c-0.17,0-0.34-0.02-0.51-0.07c-0.52-0.13-0.95-0.46-1.22-0.92s-0.35-1-0.21-1.52
		C768.29,580.61,769.09,580,770,580 M770,579c-1.33,0-2.55,0.89-2.9,2.24c-0.42,1.6,0.54,3.24,2.15,3.66
		c0.25,0.07,0.51,0.1,0.76,0.1c1.33,0,2.55-0.89,2.9-2.24c0.42-1.6-0.54-3.24-2.15-3.66C770.5,579.03,770.25,579,770,579L770,579z"
		/>
</g>
<g>
	<circle class="st0" cx="808" cy="576" r="2.5"/>
	<path class="st0" d="M808,574c1.1,0,2,0.9,2,2s-0.9,2-2,2s-2-0.9-2-2S806.9,574,808,574 M808,573c-1.66,0-3,1.34-3,3s1.34,3,3,3
		s3-1.34,3-3S809.66,573,808,573L808,573z"/>
</g>
<g>
	<circle class="st0" cx="789" cy="573" r="2.5"/>
	<path class="st0" d="M789,571c1.1,0,2,0.9,2,2s-0.9,2-2,2s-2-0.9-2-2S787.9,571,789,571 M789,570c-1.66,0-3,1.34-3,3s1.34,3,3,3
		s3-1.34,3-3S790.66,570,789,570L789,570z"/>
</g>
<g>
	<circle class="st0" cx="839.5" cy="563.5" r="4.5"/>
	<path class="st0" d="M839.5,559.5c2.21,0,4,1.79,4,4s-1.79,4-4,4s-4-1.79-4-4S837.29,559.5,839.5,559.5 M839.5,558.5
		c-2.76,0-5,2.24-5,5s2.24,5,5,5s5-2.24,5-5S842.26,558.5,839.5,558.5L839.5,558.5z"/>
</g>
<g>
	<circle class="st0" cx="905.5" cy="573.5" r="4"/>
	<path class="st0" d="M905.5,570c1.93,0,3.5,1.57,3.5,3.5s-1.57,3.5-3.5,3.5s-3.5-1.57-3.5-3.5S903.57,570,905.5,570 M905.5,569
		c-2.49,0-4.5,2.01-4.5,4.5s2.01,4.5,4.5,4.5s4.5-2.01,4.5-4.5S907.99,569,905.5,569L905.5,569z"/>
</g>
<g>
	<circle class="st0" cx="841" cy="608" r="2.5"/>
	<path class="st0" d="M841,606c1.1,0,2,0.9,2,2s-0.9,2-2,2s-2-0.9-2-2S839.9,606,841,606 M841,605c-1.66,0-3,1.34-3,3s1.34,3,3,3
		s3-1.34,3-3S842.66,605,841,605L841,605z"/>
</g>
<g>
	<circle class="st0" cx="981" cy="564" r="2.5"/>
	<path class="st0" d="M981,562c1.1,0,2,0.9,2,2s-0.9,2-2,2s-2-0.9-2-2S979.9,562,981,562 M981,561c-1.66,0-3,1.34-3,3s1.34,3,3,3
		s3-1.34,3-3S982.66,561,981,561L981,561z"/>
</g>
<g>
	<circle class="st0" cx="877" cy="651" r="2.5"/>
	<path class="st0" d="M877,649c1.1,0,2,0.9,2,2s-0.9,2-2,2s-2-0.9-2-2S875.9,649,877,649 M877,648c-1.66,0-3,1.34-3,3s1.34,3,3,3
		s3-1.34,3-3S878.66,648,877,648L877,648z"/>
</g>
<g>
	<circle class="st0" cx="826" cy="661" r="2.5"/>
	<path class="st0" d="M826,659c1.1,0,2,0.9,2,2s-0.9,2-2,2s-2-0.9-2-2S824.9,659,826,659 M826,658c-1.66,0-3,1.34-3,3s1.34,3,3,3
		s3-1.34,3-3S827.66,658,826,658L826,658z"/>
</g>
<g>
	<circle class="st0" cx="798" cy="695" r="2.5"/>
	<path class="st0" d="M798,693c1.1,0,2,0.9,2,2s-0.9,2-2,2s-2-0.9-2-2S796.9,693,798,693 M798,692c-1.66,0-3,1.34-3,3s1.34,3,3,3
		s3-1.34,3-3S799.66,692,798,692L798,692z"/>
</g>
<g>
	<circle class="st0" cx="793.5" cy="722.5" r="4"/>
	<path class="st0" d="M793.5,719c1.93,0,3.5,1.57,3.5,3.5s-1.57,3.5-3.5,3.5s-3.5-1.57-3.5-3.5S791.57,719,793.5,719 M793.5,718
		c-2.49,0-4.5,2.01-4.5,4.5s2.01,4.5,4.5,4.5s4.5-2.01,4.5-4.5S795.99,718,793.5,718L793.5,718z"/>
</g>
<g>
	<path class="st0" d="M786.5,793.5c-0.84,0-1.62-0.34-2.2-0.96c-1.13-1.21-1.06-3.11,0.15-4.24c0.56-0.52,1.28-0.8,2.04-0.8
		c0.84,0,1.62,0.34,2.2,0.96c1.13,1.21,1.06,3.11-0.15,4.24C787.99,793.21,787.26,793.5,786.5,793.5z"/>
	<path class="st0" d="M786.5,788L786.5,788c0.7,0,1.35,0.28,1.83,0.8c0.94,1.01,0.88,2.59-0.13,3.53c-0.46,0.43-1.07,0.67-1.7,0.67
		c-0.7,0-1.35-0.28-1.83-0.8c-0.45-0.49-0.69-1.13-0.67-1.79c0.02-0.67,0.31-1.29,0.8-1.74C785.26,788.24,785.87,788,786.5,788
		 M786.5,787c-0.85,0-1.71,0.31-2.38,0.94c-1.42,1.32-1.5,3.53-0.18,4.95c0.69,0.74,1.63,1.12,2.56,1.12c0.85,0,1.71-0.31,2.38-0.94
		c1.42-1.32,1.5-3.53,0.18-4.95C788.37,787.38,787.44,787,786.5,787L786.5,787z"/>
</g>
<g>
	<line class="st1" x1="742.24" y1="791.57" x2="723.45" y2="693.69"/>
</g>
<g>
	<line class="st1" x1="725.12" y1="688.79" x2="763" y2="664.02"/>
</g>
<line class="st1" x1="765.5" y1="658.5" x2="769.53" y2="584.42"/>
<line class="st1" x1="772.5" y1="580.5" x2="786.5" y2="574.5"/>
<g>
	<line class="st1" x1="791.5" y1="572.5" x2="805.5" y2="575.5"/>
</g>
<line class="st1" x1="810.5" y1="575.5" x2="835.5" y2="564.5"/>
<line class="st1" x1="844.5" y1="563.5" x2="902.5" y2="573.5"/>
<line class="st1" x1="909.5" y1="573.5" x2="978.5" y2="564.5"/>
<line class="st2" x1="892.5" y1="578.5" x2="892.5" y2="578.5"/>
<g>
	<line class="st1" x1="839.5" y1="568.5" x2="840.5" y2="605.5"/>
</g>
<line class="st1" x1="839.5" y1="609.5" x2="826.5" y2="658.5"/>
<line class="st1" x1="875.5" y1="649.5" x2="842.5" y2="609.5"/>
<line class="st1" x1="825.5" y1="661.5" x2="799.5" y2="693.5"/>
<line class="st1" x1="793.5" y1="723.5" x2="786.5" y2="787.5"/>
<line class="st1" x1="797.5" y1="697.5" x2="794.5" y2="718.5"/>
</svg>
