<?xml version="1.0" encoding="utf-8"?>
<!-- Generator: Adobe Illustrator 25.0.1, SVG Export Plug-In . SVG Version: 6.00 Build 0)  -->
<svg version="1.1" id="Layer_1" xmlns="http://www.w3.org/2000/svg" xmlns:xlink="http://www.w3.org/1999/xlink" x="0px" y="0px"
	 viewBox="440 75 1050 900" style="enable-background:new 0 0 1920 1080;" xml:space="preserve" width="560px" height="500px">
<style type="text/css">
	.st0{display:none;stroke:#000000;stroke-miterlimit:10;}
	.st1{fill:#FFFFFF;}
	.st2{fill:none;stroke:#FFFFFF;stroke-width:0.5;stroke-miterlimit:10;}
	.st3{fill:none;stroke:#FFFFFF;stroke-miterlimit:10;}
</style>
<rect x="116.2" y="-63" class="st0" width="1498" height="1206"/>
<g>
	<g>
		<path class="st1" d="M544.4,945.6c-3.5,0-6.4-2.9-6.4-6.4c0-3.5,2.9-6.4,6.4-6.4s6.4,2.9,6.4,6.4
			C550.8,942.7,547.9,945.6,544.4,945.6z"/>
		<path class="st1" d="M544.4,933.8c2.9,0,5.3,2.4,5.3,5.3s-2.4,5.3-5.3,5.3c-2.9,0-5.3-2.4-5.3-5.3S541.5,933.8,544.4,933.8
			 M544.4,931.7c-4.1,0-7.5,3.4-7.5,7.5c0,4.1,3.4,7.5,7.5,7.5c4.1,0,7.5-3.4,7.5-7.5C551.9,935,548.5,931.7,544.4,931.7
			L544.4,931.7z"/>
	</g>
	<g>
		<path class="st1" d="M467.7,617.4c-3.5,0-6.4-2.9-6.4-6.4c0-3.5,2.9-6.4,6.4-6.4c3.5,0,6.4,2.9,6.4,6.4
			C474.2,614.5,471.3,617.4,467.7,617.4z"/>
		<path class="st1" d="M467.7,605.7c2.9,0,5.3,2.4,5.3,5.3s-2.4,5.3-5.3,5.3s-5.3-2.4-5.3-5.3S464.8,605.7,467.7,605.7 M467.7,603.5
			c-4.1,0-7.5,3.4-7.5,7.5c0,4.1,3.4,7.5,7.5,7.5c4.1,0,7.5-3.4,7.5-7.5C475.2,606.9,471.9,603.5,467.7,603.5L467.7,603.5z"/>
	</g>
	<g>
		<circle class="st1" cx="637.7" cy="446.5" r="8.8"/>
		<path class="st1" d="M637.7,439c4.1,0,7.5,3.4,7.5,7.5s-3.4,7.5-7.5,7.5s-7.5-3.4-7.5-7.5S633.5,439,637.7,439 M637.7,436.5
			c-5.5,0-10,4.5-10,10s4.5,10,10,10c5.5,0,10-4.5,10-10S643.2,436.5,637.7,436.5L637.7,436.5z"/>
	</g>
	<g>
		<path class="st1" d="M695.7,172.6c-0.4,0-0.8-0.1-1.3-0.2c-2.7-0.7-4.3-3.4-3.6-6.1c0.6-2.2,2.6-3.7,4.8-3.7
			c0.4,0,0.8,0.1,1.3,0.2c2.7,0.7,4.3,3.4,3.6,6.1C700,171,698,172.6,695.7,172.6z"/>
		<path class="st1" d="M695.7,163.6L695.7,163.6c0.3,0,0.7,0,1,0.1c1,0.3,1.9,0.9,2.4,1.8c0.5,0.9,0.7,2,0.4,3c-0.5,1.8-2,3-3.9,3
			c-0.3,0-0.7,0-1-0.1c-1-0.3-1.9-0.9-2.4-1.8c-0.5-0.9-0.7-2-0.4-3C692.3,164.8,693.9,163.6,695.7,163.6 M695.7,161.6
			c-2.7,0-5.1,1.8-5.8,4.5c-0.8,3.2,1.1,6.5,4.3,7.3c0.5,0.1,1,0.2,1.5,0.2c2.7,0,5.1-1.8,5.8-4.5c0.8-3.2-1.1-6.5-4.3-7.3
			C696.7,161.6,696.2,161.6,695.7,161.6L695.7,161.6z"/>
	</g>
	<g>
		<circle class="st1" cx="801.9" cy="143.1" r="5"/>
		<path class="st1" d="M801.9,139.1c2.2,0,4,1.8,4,4s-1.8,4-4,4s-4-1.8-4-4S799.7,139.1,801.9,139.1 M801.9,137.1c-3.3,0-6,2.7-6,6
			s2.7,6,6,6s6-2.7,6-6S805.2,137.1,801.9,137.1L801.9,137.1z"/>
	</g>
	<g>
		<circle class="st1" cx="735.8" cy="130.9" r="5"/>
		<path class="st1" d="M735.8,126.9c2.2,0,4,1.8,4,4s-1.8,4-4,4s-4-1.8-4-4S733.6,126.9,735.8,126.9 M735.8,124.9c-3.3,0-6,2.7-6,6
			s2.7,6,6,6s6-2.7,6-6S739.1,124.9,735.8,124.9L735.8,124.9z"/>
	</g>
	<g>
		<circle class="st1" cx="932.2" cy="92.4" r="8.1"/>
		<path class="st1" d="M932.2,85.2c4,0,7.2,3.2,7.2,7.2s-3.2,7.2-7.2,7.2c-4,0-7.2-3.2-7.2-7.2S928.2,85.2,932.2,85.2 M932.2,83.4
			c-5,0-9,4-9,9s4,9,9,9s9-4,9-9S937.2,83.4,932.2,83.4L932.2,83.4z"/>
	</g>
	<g>
		<circle class="st1" cx="945.1" cy="270.7" r="5"/>
		<path class="st1" d="M945.1,266.7c2.2,0,4,1.8,4,4s-1.8,4-4,4s-4-1.8-4-4S942.9,266.7,945.1,266.7 M945.1,264.7c-3.3,0-6,2.7-6,6
			s2.7,6,6,6s6-2.7,6-6S948.4,264.7,945.1,264.7L945.1,264.7z"/>
	</g>
	<g>
		<circle class="st1" cx="1470.2" cy="96.2" r="4.2"/>
		<path class="st1" d="M1470.2,92.8c1.8,0,3.3,1.5,3.3,3.3s-1.5,3.3-3.3,3.3c-1.8,0-3.3-1.5-3.3-3.3S1468.4,92.8,1470.2,92.8
			 M1470.2,91.2c-2.8,0-5,2.2-5,5s2.2,5,5,5c2.8,0,5-2.2,5-5S1473,91.2,1470.2,91.2L1470.2,91.2z"/>
	</g>
	<g>
		<circle class="st1" cx="1099.5" cy="391.5" r="7.9"/>
		<path class="st1" d="M1099.5,385.2c3.5,0,6.3,2.9,6.3,6.3c0,3.5-2.9,6.3-6.3,6.3s-6.3-2.9-6.3-6.3
			C1093.2,388,1096,385.2,1099.5,385.2 M1099.5,382c-5.3,0-9.5,4.2-9.5,9.5c0,5.3,4.2,9.5,9.5,9.5s9.5-4.2,9.5-9.5
			C1109,386.3,1104.8,382,1099.5,382L1099.5,382z"/>
	</g>
	<g>
		<circle class="st1" cx="892.5" cy="439.5" r="5"/>
		<path class="st1" d="M892.5,435.5c2.2,0,4,1.8,4,4s-1.8,4-4,4s-4-1.8-4-4S890.3,435.5,892.5,435.5 M892.5,433.5c-3.3,0-6,2.7-6,6
			s2.7,6,6,6s6-2.7,6-6S895.8,433.5,892.5,433.5L892.5,433.5z"/>
	</g>
	<g>
		<circle class="st1" cx="786.8" cy="571.7" r="5"/>
		<path class="st1" d="M786.8,567.7c2.2,0,4,1.8,4,4s-1.8,4-4,4s-4-1.8-4-4S784.6,567.7,786.8,567.7 M786.8,565.7c-3.3,0-6,2.7-6,6
			s2.7,6,6,6s6-2.7,6-6S790.1,565.7,786.8,565.7L786.8,565.7z"/>
	</g>
	<g>
		<circle class="st1" cx="770.1" cy="666.2" r="6.7"/>
		<path class="st1" d="M770.1,660.3c3.2,0,5.8,2.6,5.8,5.8s-2.6,5.8-5.8,5.8s-5.8-2.6-5.8-5.8S766.9,660.3,770.1,660.3 M770.1,658.7
			c-4.1,0-7.5,3.4-7.5,7.5s3.4,7.5,7.5,7.5s7.5-3.4,7.5-7.5S774.3,658.7,770.1,658.7L770.1,658.7z"/>
	</g>
	<g>
		<path class="st1" d="M718.1,939.8c-1.7,0-3.2-0.7-4.4-1.9c-2.3-2.4-2.1-6.2,0.3-8.5c1.1-1,2.6-1.6,4.1-1.6c1.7,0,3.2,0.7,4.4,1.9
			c2.3,2.4,2.1,6.2-0.3,8.5C721,939.2,719.6,939.8,718.1,939.8z"/>
		<path class="st1" d="M718.1,928.8L718.1,928.8c1.4,0,2.7,0.6,3.7,1.6c1.9,2,1.8,5.2-0.3,7c-0.9,0.9-2.1,1.3-3.4,1.3
			c-1.4,0-2.7-0.6-3.7-1.6c-0.9-1-1.4-2.3-1.3-3.6c0-1.3,0.6-2.6,1.6-3.5C715.6,929.3,716.8,928.8,718.1,928.8 M718.1,926.8
			c-1.7,0-3.4,0.6-4.8,1.9c-2.8,2.6-3,7-0.4,9.9c1.4,1.5,3.3,2.2,5.1,2.2c1.7,0,3.4-0.6,4.8-1.9c2.8-2.6,3-7,0.4-9.9
			C721.8,927.6,719.9,926.8,718.1,926.8L718.1,926.8z"/>
	</g>
	<g>
		<line class="st2" x1="544.4" y1="931.7" x2="468.9" y2="618.4"/>
	</g>
	<g>
		<line class="st2" x1="467.7" y1="605.7" x2="632.4" y2="456.5"/>
	</g>
	<line class="st2" x1="637.7" y1="446.5" x2="694.9" y2="170.1"/>
	<line class="st2" x1="696.3" y1="166.7" x2="731.3" y2="135.4"/>
	<g>
		<line class="st2" x1="740.3" y1="130.9" x2="797.4" y2="143.1"/>
	</g>
	<line class="st2" x1="805.6" y1="143.1" x2="924.7" y2="94.2"/>
	<line class="st2" x1="939.7" y1="92.4" x2="1176.3" y2="133.2"/>
	<line class="st2" x1="1191.8" y1="132.9" x2="1473.2" y2="96.2"/>
	<line class="st3" x1="892.5" y1="578.5" x2="892.5" y2="578.5"/>
	<g>
		<g>
			<line class="st2" x1="932.2" y1="99.2" x2="945.1" y2="267.7"/>
		</g>
		<g>
			<line class="st2" x1="932.2" y1="99.2" x2="945.1" y2="267.7"/>
		</g>
	</g>
	<line class="st2" x1="943" y1="275.2" x2="892.5" y2="436.5"/>
	<line class="st2" x1="1092" y1="386.8" x2="948.4" y2="274.4"/>
	<line class="st2" x1="892.5" y1="439.5" x2="786.5" y2="570"/>
	<line class="st2" x1="770.1" y1="669.8" x2="718.1" y2="933"/>
	<line class="st2" x1="786.8" y1="571.7" x2="771.8" y2="659.5"/>
	<g>
		<circle class="st1" cx="1184.8" cy="132.9" r="7.1"/>
		<path class="st1" d="M1184.8,127.2c3.1,0,5.7,2.6,5.7,5.7c0,3.1-2.6,5.7-5.7,5.7c-3.1,0-5.7-2.6-5.7-5.7
			C1179.1,129.8,1181.6,127.2,1184.8,127.2 M1184.8,124.4c-4.7,0-8.5,3.8-8.5,8.5c0,4.7,3.8,8.5,8.5,8.5c4.7,0,8.5-3.8,8.5-8.5
			C1193.3,128.2,1189.5,124.4,1184.8,124.4L1184.8,124.4z"/>
	</g>
</g>
</svg>
