<?xml version="1.0" encoding="UTF-8"?> <svg xmlns="http://www.w3.org/2000/svg" width="375" viewBox="0 0 375 375" height="375"> <defs> <clipPath id="a"> <path d="M 138.703125 137.117188 L 236.171875 137.117188 L 236.171875 195 L 138.703125 195 Z M 138.703125 137.117188"></path> </clipPath> </defs> <path fill="#FFF" d="M-37.5 -37.5H412.5V412.5H-37.5z"></path> <path fill="#FFF" d="M-37.5 -37.5H412.5V412.5H-37.5z"></path> <path fill="#9AA7B2" d="M 270.6875 298.417969 C 270.6875 305.644531 264.398438 311.511719 257.683594 311.511719 L 114.460938 311.511719 C 112.570312 311.511719 110.683594 311.09375 109.007812 310.359375 C 111.207031 312.664062 114.25 314.023438 117.824219 314.023438 L 260.832031 314.023438 C 267.4375 314.023438 272.890625 308.578125 272.890625 301.980469 L 272.890625 76.582031 C 272.890625 73.546875 271.738281 70.820312 269.953125 68.726562 C 270.480469 70.089844 270.6875 71.554688 270.6875 73.019531 L 270.6875 298.417969"></path> <path fill="#FFF" d="M 114.460938 310.464844 L 257.476562 310.464844 C 264.082031 310.464844 269.535156 305.015625 269.535156 298.417969 L 269.535156 73.019531 C 269.535156 66.421875 264.082031 60.976562 257.476562 60.976562 L 114.460938 60.976562 C 107.851562 60.976562 102.398438 66.421875 102.398438 73.019531 L 102.398438 298.417969 C 102.398438 305.121094 107.851562 310.464844 114.460938 310.464844"></path> <path fill="#77838D" d="M 268.589844 66.109375 C 266.285156 62.441406 262.195312 59.925781 257.476562 59.925781 L 114.460938 59.925781 C 107.222656 59.925781 101.351562 65.792969 101.351562 73.019531 L 101.351562 298.417969 C 101.351562 302.710938 103.449219 306.484375 106.59375 308.890625 C 108.902344 312.558594 112.992188 315.074219 117.960938 315.074219 L 260.726562 315.074219 C 267.960938 315.074219 273.835938 309.207031 273.835938 301.980469 L 273.835938 76.582031 C 273.835938 72.289062 271.738281 68.515625 268.589844 66.109375 M 102.398438 298.417969 L 102.398438 73.019531 C 102.398438 66.421875 107.851562 60.976562 114.460938 60.976562 L 257.476562 60.976562 C 264.082031 60.976562 269.535156 66.421875 269.535156 73.019531 L 269.535156 298.417969 C 269.535156 305.015625 264.082031 310.464844 257.476562 310.464844 L 114.460938 310.464844 C 107.851562 310.464844 102.398438 305.121094 102.398438 298.417969 M 272.890625 301.980469 C 272.890625 308.578125 267.332031 314.023438 260.726562 314.023438 L 117.960938 314.023438 C 114.355469 314.023438 111.3125 312.664062 109.109375 310.359375 C 110.789062 311.09375 112.570312 311.511719 114.5625 311.511719 L 257.582031 311.511719 C 264.816406 311.511719 270.6875 305.644531 270.6875 298.417969 L 270.6875 73.019531 C 270.6875 71.554688 270.375 70.089844 269.953125 68.726562 C 271.738281 70.820312 272.890625 73.546875 272.890625 76.582031 L 272.890625 301.980469"></path> <path fill="#100F0D" d="M 178.171875 218.371094 C 178.234375 218.351562 178.304688 218.378906 178.355469 218.421875 C 180.972656 220.644531 184.144531 222.113281 187.535156 222.652344 C 188.054688 222.738281 188.585938 222.738281 189.109375 222.652344 C 192.492188 222.113281 195.664062 220.644531 198.285156 218.421875 C 198.390625 218.335938 198.542969 218.351562 198.628906 218.457031 C 198.683594 218.519531 198.699219 218.601562 198.683594 218.679688 C 197.570312 223.085938 194.664062 226.828125 190.664062 228.984375 C 189.195312 229.773438 187.429688 229.773438 185.960938 228.984375 C 181.96875 226.828125 179.054688 223.085938 177.949219 218.679688 C 177.914062 218.539062 177.996094 218.40625 178.128906 218.371094 C 178.136719 218.371094 178.152344 218.371094 178.164062 218.371094 Z M 178.109375 205.597656 C 181.316406 205.464844 184.320312 207.144531 185.890625 209.941406 C 185.945312 210.054688 185.910156 210.179688 185.8125 210.25 L 185.839844 210.25 C 182.578125 213.019531 177.703125 212.613281 174.945312 209.347656 C 174.425781 208.730469 174 208.039062 173.703125 207.296875 C 173.65625 207.191406 173.691406 207.066406 173.789062 206.996094 C 175.078125 206.144531 176.574219 205.667969 178.109375 205.597656 Z M 198.066406 205.597656 C 199.789062 205.5625 201.476562 206.058594 202.90625 206.996094 C 203.003906 207.066406 203.046875 207.191406 203.003906 207.296875 C 201.367188 211.25 196.855469 213.132812 192.90625 211.496094 C 192.164062 211.195312 191.464844 210.773438 190.855469 210.25 C 190.757812 210.1875 190.722656 210.054688 190.777344 209.941406 L 190.804688 209.941406 C 192.289062 207.304688 195.042969 205.652344 198.066406 205.597656 Z M 166.351562 198.558594 C 165.308594 211.628906 170.292969 224.472656 179.875 233.425781 C 184.628906 237.855469 192.003906 237.855469 196.765625 233.425781 C 206.351562 224.472656 211.332031 211.628906 210.289062 198.558594 L 166.351562 198.558594"></path> <g clip-path="url(#a)"> <path fill="#100F0D" d="M 202.191406 173.425781 C 194.574219 165.890625 192.960938 154.179688 198.242188 144.855469 C 200.097656 146.40625 202.851562 146.15625 204.398438 144.300781 C 205.945312 142.441406 205.699219 139.683594 203.84375 138.132812 C 201.988281 136.585938 199.222656 136.832031 197.675781 138.691406 C 196.5 140.117188 196.332031 142.113281 197.269531 143.707031 C 184.8125 146.945312 175.734375 157.664062 174.585938 170.492188 C 168.59375 161.414062 156.394531 158.929688 147.339844 164.925781 C 147.324219 164.933594 147.304688 164.945312 147.289062 164.953125 C 146.644531 162.625 144.230469 161.253906 141.910156 161.910156 C 139.578125 162.554688 138.214844 164.972656 138.859375 167.296875 C 139.503906 169.632812 141.917969 170.996094 144.25 170.347656 C 145.988281 169.863281 147.253906 168.351562 147.429688 166.546875 C 157.667969 172.578125 164.585938 182.972656 166.203125 194.753906 L 210.449219 194.753906 C 213.160156 186.296875 219.390625 179.441406 227.542969 175.9375 C 227.921875 178.328125 230.167969 179.953125 232.550781 179.566406 C 234.9375 179.183594 236.5625 176.9375 236.175781 174.550781 C 235.792969 172.164062 233.550781 170.542969 231.164062 170.921875 C 229.726562 171.152344 228.496094 172.089844 227.886719 173.417969 C 220.9375 166.316406 209.550781 166.199219 202.457031 173.160156 C 202.367188 173.25 202.277344 173.339844 202.191406 173.4375 L 202.191406 173.425781"></path> </g> <g> <g> <g> <path d="M -2 9.296875 L -0.734375 9.46875 L -0.734375 10.140625 L -4.75 10.140625 L -4.75 9.46875 L -3.484375 9.296875 L -3.484375 0.8125 L -4.75 0.65625 L -4.75 0 L -0.75 0 L -0.75 0.671875 L -2 0.8125 Z M -2 9.296875" transform="translate(259.546 285.683)"></path> </g> </g> </g> <g> <g> <g> <path d="M -1.78125 9.296875 L -0.6875 9.46875 L -0.6875 10.140625 L -3.21875 10.140625 L -7.765625 3.484375 L -8.53125 2.03125 L -8.53125 9.296875 L -7.34375 9.46875 L -7.34375 10.140625 L -10.5625 10.140625 L -10.5625 9.46875 L -9.484375 9.296875 L -9.484375 0 L -8.40625 0 L -3.75 6.8125 L -2.703125 8.609375 L -2.703125 0.8125 L -4 0.671875 L -4 0 L -0.6875 0 L -0.6875 0.671875 L -1.78125 0.8125 Z M -1.78125 9.296875" transform="translate(262.248 270.754)"></path> </g> </g> </g> <g> <g> <g> <path d="M -1.765625 9.296875 L -0.703125 9.46875 L -0.703125 10.140625 L -2.484375 10.140625 C -2.765625 10.140625 -3.171875 10.160156 -3.703125 10.203125 C -4.234375 10.234375 -4.628906 10.25 -4.890625 10.25 C -6.578125 10.25 -7.832031 9.820312 -8.65625 8.96875 C -9.488281 8.125 -9.90625 6.929688 -9.90625 5.390625 C -9.90625 4.316406 -9.691406 3.363281 -9.265625 2.53125 C -8.835938 1.695312 -8.242188 1.046875 -7.484375 0.578125 C -6.722656 0.117188 -5.84375 -0.109375 -4.84375 -0.109375 C -4.625 -0.109375 -4.253906 -0.0859375 -3.734375 -0.046875 C -3.179688 -0.015625 -2.769531 0 -2.5 0 L -0.625 0 L -0.625 0.671875 L -1.765625 0.8125 Z M -3.203125 0.765625 C -3.523438 0.691406 -3.9375 0.65625 -4.4375 0.65625 L -4.84375 0.65625 C -5.53125 0.664062 -6.132812 0.835938 -6.65625 1.171875 C -7.175781 1.515625 -7.582031 2.019531 -7.875 2.6875 C -8.164062 3.351562 -8.3125 4.164062 -8.3125 5.125 C -8.3125 6.5625 -8 7.648438 -7.375 8.390625 C -6.757812 9.140625 -5.820312 9.515625 -4.5625 9.515625 C -4.300781 9.515625 -3.988281 9.5 -3.625 9.46875 C -3.46875 9.4375 -3.328125 9.421875 -3.203125 9.421875 Z M -3.203125 0.765625" transform="translate(261.963 255.825)"></path> </g> </g> </g> <g> <g> <g> <path d="M -5.203125 -0.109375 C -3.867188 -0.109375 -2.882812 0.242188 -2.25 0.953125 C -1.613281 1.671875 -1.296875 2.78125 -1.296875 4.28125 L -1.296875 9.296875 L -0.328125 9.46875 L -0.328125 10.140625 L -3.96875 10.140625 L -3.96875 9.46875 L -2.8125 9.28125 L -2.8125 4.140625 C -2.8125 2.898438 -3.03125 2.003906 -3.46875 1.453125 C -3.914062 0.910156 -4.550781 0.640625 -5.375 0.640625 C -6.207031 0.640625 -6.828125 0.929688 -7.234375 1.515625 C -7.648438 2.097656 -7.859375 2.945312 -7.859375 4.0625 L -7.859375 9.28125 L -6.71875 9.46875 L -6.71875 10.140625 L -9.90625 10.140625 L -9.90625 9.46875 L -8.90625 9.296875 L -8.90625 4.125 C -8.90625 2.707031 -8.566406 1.644531 -7.890625 0.9375 C -7.210938 0.238281 -6.316406 -0.109375 -5.203125 -0.109375 Z M -5.203125 -0.109375" transform="translate(261.821 240.896)"></path> </g> </g> </g> <g> <g> <g> <path d="M -3.953125 -0.15625 C -3.484375 -0.15625 -3.0625 -0.113281 -2.6875 -0.03125 C -2.3125 0.0507812 -1.90625 0.160156 -1.46875 0.296875 C -1.1875 0.398438 -0.976562 0.457031 -0.84375 0.46875 L -0.953125 2.9375 L -1.828125 2.9375 L -2.0625 1.15625 C -2.21875 1.007812 -2.46875 0.878906 -2.8125 0.765625 C -3.164062 0.648438 -3.550781 0.59375 -3.96875 0.59375 C -4.664062 0.59375 -5.191406 0.75 -5.546875 1.0625 C -5.910156 1.375 -6.09375 1.800781 -6.09375 2.34375 C -6.09375 2.695312 -5.992188 3 -5.796875 3.25 C -5.597656 3.507812 -5.335938 3.726562 -5.015625 3.90625 C -4.691406 4.09375 -4.25 4.3125 -3.6875 4.5625 C -3.175781 4.789062 -2.726562 5.019531 -2.34375 5.25 C -1.96875 5.488281 -1.640625 5.804688 -1.359375 6.203125 C -1.085938 6.597656 -0.953125 7.078125 -0.953125 7.640625 C -0.953125 8.140625 -1.085938 8.585938 -1.359375 8.984375 C -1.628906 9.378906 -2.015625 9.6875 -2.515625 9.90625 C -3.023438 10.132812 -3.613281 10.25 -4.28125 10.25 C -4.707031 10.25 -5.082031 10.21875 -5.40625 10.15625 C -5.726562 10.09375 -6.09375 10.007812 -6.5 9.90625 C -6.6875 9.84375 -6.84375 9.800781 -6.96875 9.78125 L -6.875 7.484375 L -6.046875 7.484375 L -5.78125 9.15625 C -5.6875 9.25 -5.492188 9.335938 -5.203125 9.421875 C -4.921875 9.503906 -4.613281 9.546875 -4.28125 9.546875 C -3.644531 9.546875 -3.164062 9.410156 -2.84375 9.140625 C -2.519531 8.878906 -2.359375 8.5 -2.359375 8 C -2.359375 7.632812 -2.457031 7.328125 -2.65625 7.078125 C -2.851562 6.835938 -3.097656 6.628906 -3.390625 6.453125 C -3.679688 6.285156 -4.144531 6.050781 -4.78125 5.75 C -5.375 5.46875 -5.851562 5.210938 -6.21875 4.984375 C -6.59375 4.753906 -6.914062 4.453125 -7.1875 4.078125 C -7.457031 3.710938 -7.59375 3.273438 -7.59375 2.765625 C -7.59375 2.285156 -7.457031 1.820312 -7.1875 1.375 C -6.914062 0.925781 -6.503906 0.554688 -5.953125 0.265625 C -5.410156 -0.015625 -4.742188 -0.15625 -3.953125 -0.15625 Z M -3.953125 -0.15625" transform="translate(260.826 225.967)"></path> </g> </g> </g> <g> <g> <g> <path d="M -3.953125 9.421875 L -1.609375 9.34375 L -1.140625 6.484375 L -0.234375 6.484375 L -0.46875 10.140625 L -8.96875 10.140625 L -9.140625 6.484375 L -8.28125 6.484375 L -7.828125 9.34375 L -5.46875 9.421875 L -5.46875 0.8125 L -7.40625 0.671875 L -7.40625 0 L -2.1875 0 L -2.1875 0.671875 L -3.953125 0.8125 Z M -3.953125 9.421875" transform="translate(261.466 211.037)"></path> </g> </g> </g> <g> <g> <g> <path d="M -0.625 0.671875 L -1.765625 0.8125 L -1.765625 9.296875 L -0.703125 9.484375 L -0.703125 10.140625 L -2.484375 10.140625 C -2.742188 10.140625 -3.085938 10.160156 -3.515625 10.203125 C -3.972656 10.234375 -4.332031 10.25 -4.59375 10.25 C -5.925781 10.25 -6.875 10.03125 -7.4375 9.59375 C -8.007812 9.164062 -8.296875 8.488281 -8.296875 7.5625 C -8.296875 6.914062 -8.113281 6.320312 -7.75 5.78125 C -7.394531 5.25 -6.90625 4.890625 -6.28125 4.703125 C -6.570312 4.546875 -6.84375 4.273438 -7.09375 3.890625 C -7.34375 3.515625 -7.648438 2.992188 -8.015625 2.328125 C -8.296875 1.816406 -8.507812 1.441406 -8.65625 1.203125 C -8.8125 0.960938 -8.957031 0.832031 -9.09375 0.8125 L -9.625 0.671875 L -9.625 0 L -7.75 0 C -7.601562 0 -7.4375 0.15625 -7.25 0.46875 C -7.070312 0.78125 -6.832031 1.265625 -6.53125 1.921875 C -6.195312 2.640625 -5.910156 3.210938 -5.671875 3.640625 C -5.429688 4.066406 -5.191406 4.335938 -4.953125 4.453125 C -3.984375 4.453125 -3.40625 4.457031 -3.21875 4.46875 L -3.21875 0.8125 L -4.578125 0.671875 L -4.578125 0 L -0.625 0 Z M -4.84375 5.1875 C -5.425781 5.1875 -5.882812 5.378906 -6.21875 5.765625 C -6.5625 6.148438 -6.734375 6.71875 -6.734375 7.46875 C -6.734375 8.132812 -6.5625 8.640625 -6.21875 8.984375 C -5.875 9.335938 -5.285156 9.515625 -4.453125 9.515625 C -4.160156 9.515625 -3.867188 9.5 -3.578125 9.46875 C -3.398438 9.445312 -3.28125 9.4375 -3.21875 9.4375 L -3.21875 5.203125 C -3.351562 5.191406 -3.632812 5.1875 -4.0625 5.1875 Z M -4.84375 5.1875" transform="translate(261.608 196.108)"></path> </g> </g> </g> <g> <g> <g> <path d="M -2 9.296875 L -0.734375 9.46875 L -0.734375 10.140625 L -4.75 10.140625 L -4.75 9.46875 L -3.484375 9.296875 L -3.484375 0.8125 L -4.75 0.65625 L -4.75 0 L -0.75 0 L -0.75 0.671875 L -2 0.8125 Z M -2 9.296875" transform="translate(259.546 181.18)"></path> </g> </g> </g> <g> <g> <g> <path d="M -3.953125 10.234375 L -5.46875 10.234375 L -8.78125 0.8125 L -9.625 0.671875 L -9.625 0 L -6.015625 0 L -6.015625 0.671875 L -7.15625 0.8125 L -6.515625 2.828125 L -2.53125 2.828125 L -1.890625 0.8125 L -3.0625 0.671875 L -3.0625 0 L 0.171875 0 L 0.171875 0.671875 L -0.671875 0.8125 Z M -4.828125 8.046875 L -4.484375 9.25 L -4.15625 8.015625 L -2.765625 3.625 L -6.25 3.625 Z M -4.828125 8.046875" transform="translate(261.49 166.25)"></path> </g> </g> </g> <g> <g> <g> <path d="M 2 -9.296875 L 0.734375 -9.46875 L 0.734375 -10.140625 L 4.75 -10.140625 L 4.75 -9.46875 L 3.484375 -9.296875 L 3.484375 -0.8125 L 4.75 -0.65625 L 4.75 0 L 0.75 0 L 0.75 -0.671875 L 2 -0.8125 Z M 2 -9.296875" transform="translate(116.861 81.516)"></path> </g> </g> </g> <g> <g> <g> <path d="M 1.78125 -9.296875 L 0.6875 -9.46875 L 0.6875 -10.140625 L 3.21875 -10.140625 L 7.765625 -3.484375 L 8.53125 -2.03125 L 8.53125 -9.296875 L 7.34375 -9.46875 L 7.34375 -10.140625 L 10.5625 -10.140625 L 10.5625 -9.46875 L 9.484375 -9.296875 L 9.484375 0 L 8.40625 0 L 3.75 -6.8125 L 2.703125 -8.609375 L 2.703125 -0.8125 L 4 -0.671875 L 4 0 L 0.6875 0 L 0.6875 -0.671875 L 1.78125 -0.8125 Z M 1.78125 -9.296875" transform="translate(114.16 96.445)"></path> </g> </g> </g> <g> <g> <g> <path d="M 1.765625 -9.296875 L 0.703125 -9.46875 L 0.703125 -10.140625 L 2.484375 -10.140625 C 2.765625 -10.140625 3.171875 -10.160156 3.703125 -10.203125 C 4.234375 -10.234375 4.628906 -10.25 4.890625 -10.25 C 6.578125 -10.25 7.832031 -9.820312 8.65625 -8.96875 C 9.488281 -8.125 9.90625 -6.929688 9.90625 -5.390625 C 9.90625 -4.316406 9.691406 -3.363281 9.265625 -2.53125 C 8.835938 -1.695312 8.242188 -1.046875 7.484375 -0.578125 C 6.722656 -0.117188 5.84375 0.109375 4.84375 0.109375 C 4.625 0.109375 4.253906 0.0859375 3.734375 0.046875 C 3.179688 0.015625 2.769531 0 2.5 0 L 0.625 0 L 0.625 -0.671875 L 1.765625 -0.8125 Z M 3.203125 -0.765625 C 3.523438 -0.691406 3.9375 -0.65625 4.4375 -0.65625 L 4.84375 -0.65625 C 5.53125 -0.664062 6.132812 -0.835938 6.65625 -1.171875 C 7.175781 -1.515625 7.582031 -2.019531 7.875 -2.6875 C 8.164062 -3.351562 8.3125 -4.164062 8.3125 -5.125 C 8.3125 -6.5625 8 -7.648438 7.375 -8.390625 C 6.757812 -9.140625 5.820312 -9.515625 4.5625 -9.515625 C 4.300781 -9.515625 3.988281 -9.5 3.625 -9.46875 C 3.46875 -9.4375 3.328125 -9.421875 3.203125 -9.421875 Z M 3.203125 -0.765625" transform="translate(114.444 111.374)"></path> </g> </g> </g> <g> <g> <g> <path d="M 5.203125 0.109375 C 3.867188 0.109375 2.882812 -0.242188 2.25 -0.953125 C 1.613281 -1.671875 1.296875 -2.78125 1.296875 -4.28125 L 1.296875 -9.296875 L 0.328125 -9.46875 L 0.328125 -10.140625 L 3.96875 -10.140625 L 3.96875 -9.46875 L 2.8125 -9.28125 L 2.8125 -4.140625 C 2.8125 -2.898438 3.03125 -2.003906 3.46875 -1.453125 C 3.914062 -0.910156 4.550781 -0.640625 5.375 -0.640625 C 6.207031 -0.640625 6.828125 -0.929688 7.234375 -1.515625 C 7.648438 -2.097656 7.859375 -2.945312 7.859375 -4.0625 L 7.859375 -9.28125 L 6.71875 -9.46875 L 6.71875 -10.140625 L 9.90625 -10.140625 L 9.90625 -9.46875 L 8.90625 -9.296875 L 8.90625 -4.125 C 8.90625 -2.707031 8.566406 -1.644531 7.890625 -0.9375 C 7.210938 -0.238281 6.316406 0.109375 5.203125 0.109375 Z M 5.203125 0.109375" transform="translate(114.586 126.303)"></path> </g> </g> </g> <g> <g> <g> <path d="M 3.953125 0.15625 C 3.484375 0.15625 3.0625 0.113281 2.6875 0.03125 C 2.3125 -0.0507812 1.90625 -0.160156 1.46875 -0.296875 C 1.1875 -0.398438 0.976562 -0.457031 0.84375 -0.46875 L 0.953125 -2.9375 L 1.828125 -2.9375 L 2.0625 -1.15625 C 2.21875 -1.007812 2.46875 -0.878906 2.8125 -0.765625 C 3.164062 -0.648438 3.550781 -0.59375 3.96875 -0.59375 C 4.664062 -0.59375 5.191406 -0.75 5.546875 -1.0625 C 5.910156 -1.375 6.09375 -1.800781 6.09375 -2.34375 C 6.09375 -2.695312 5.992188 -3 5.796875 -3.25 C 5.597656 -3.507812 5.335938 -3.726562 5.015625 -3.90625 C 4.691406 -4.09375 4.25 -4.3125 3.6875 -4.5625 C 3.175781 -4.789062 2.726562 -5.019531 2.34375 -5.25 C 1.96875 -5.488281 1.640625 -5.804688 1.359375 -6.203125 C 1.085938 -6.597656 0.953125 -7.078125 0.953125 -7.640625 C 0.953125 -8.140625 1.085938 -8.585938 1.359375 -8.984375 C 1.628906 -9.378906 2.015625 -9.6875 2.515625 -9.90625 C 3.023438 -10.132812 3.613281 -10.25 4.28125 -10.25 C 4.707031 -10.25 5.082031 -10.21875 5.40625 -10.15625 C 5.726562 -10.09375 6.09375 -10.007812 6.5 -9.90625 C 6.6875 -9.84375 6.84375 -9.800781 6.96875 -9.78125 L 6.875 -7.484375 L 6.046875 -7.484375 L 5.78125 -9.15625 C 5.6875 -9.25 5.492188 -9.335938 5.203125 -9.421875 C 4.921875 -9.503906 4.613281 -9.546875 4.28125 -9.546875 C 3.644531 -9.546875 3.164062 -9.410156 2.84375 -9.140625 C 2.519531 -8.878906 2.359375 -8.5 2.359375 -8 C 2.359375 -7.632812 2.457031 -7.328125 2.65625 -7.078125 C 2.851562 -6.835938 3.097656 -6.628906 3.390625 -6.453125 C 3.679688 -6.285156 4.144531 -6.050781 4.78125 -5.75 C 5.375 -5.46875 5.851562 -5.210938 6.21875 -4.984375 C 6.59375 -4.753906 6.914062 -4.453125 7.1875 -4.078125 C 7.457031 -3.710938 7.59375 -3.273438 7.59375 -2.765625 C 7.59375 -2.285156 7.457031 -1.820312 7.1875 -1.375 C 6.914062 -0.925781 6.503906 -0.554688 5.953125 -0.265625 C 5.410156 0.015625 4.742188 0.15625 3.953125 0.15625 Z M 3.953125 0.15625" transform="translate(115.582 141.232)"></path> </g> </g> </g> <g> <g> <g> <path d="M 3.953125 -9.421875 L 1.609375 -9.34375 L 1.140625 -6.484375 L 0.234375 -6.484375 L 0.46875 -10.140625 L 8.96875 -10.140625 L 9.140625 -6.484375 L 8.28125 -6.484375 L 7.828125 -9.34375 L 5.46875 -9.421875 L 5.46875 -0.8125 L 7.40625 -0.671875 L 7.40625 0 L 2.1875 0 L 2.1875 -0.671875 L 3.953125 -0.8125 Z M 3.953125 -9.421875" transform="translate(114.942 156.161)"></path> </g> </g> </g> <g> <g> <g> <path d="M 0.625 -0.671875 L 1.765625 -0.8125 L 1.765625 -9.296875 L 0.703125 -9.484375 L 0.703125 -10.140625 L 2.484375 -10.140625 C 2.742188 -10.140625 3.085938 -10.160156 3.515625 -10.203125 C 3.972656 -10.234375 4.332031 -10.25 4.59375 -10.25 C 5.925781 -10.25 6.875 -10.03125 7.4375 -9.59375 C 8.007812 -9.164062 8.296875 -8.488281 8.296875 -7.5625 C 8.296875 -6.914062 8.113281 -6.320312 7.75 -5.78125 C 7.394531 -5.25 6.90625 -4.890625 6.28125 -4.703125 C 6.570312 -4.546875 6.84375 -4.273438 7.09375 -3.890625 C 7.34375 -3.515625 7.648438 -2.992188 8.015625 -2.328125 C 8.296875 -1.816406 8.507812 -1.441406 8.65625 -1.203125 C 8.8125 -0.960938 8.957031 -0.832031 9.09375 -0.8125 L 9.625 -0.671875 L 9.625 0 L 7.75 0 C 7.601562 0 7.4375 -0.15625 7.25 -0.46875 C 7.070312 -0.78125 6.832031 -1.265625 6.53125 -1.921875 C 6.195312 -2.640625 5.910156 -3.210938 5.671875 -3.640625 C 5.429688 -4.066406 5.191406 -4.335938 4.953125 -4.453125 C 3.984375 -4.453125 3.40625 -4.457031 3.21875 -4.46875 L 3.21875 -0.8125 L 4.578125 -0.671875 L 4.578125 0 L 0.625 0 Z M 4.84375 -5.1875 C 5.425781 -5.1875 5.882812 -5.378906 6.21875 -5.765625 C 6.5625 -6.148438 6.734375 -6.71875 6.734375 -7.46875 C 6.734375 -8.132812 6.5625 -8.640625 6.21875 -8.984375 C 5.875 -9.335938 5.285156 -9.515625 4.453125 -9.515625 C 4.160156 -9.515625 3.867188 -9.5 3.578125 -9.46875 C 3.398438 -9.445312 3.28125 -9.4375 3.21875 -9.4375 L 3.21875 -5.203125 C 3.351562 -5.191406 3.632812 -5.1875 4.0625 -5.1875 Z M 4.84375 -5.1875" transform="translate(114.8 171.09)"></path> </g> </g> </g> <g> <g> <g> <path d="M 2 -9.296875 L 0.734375 -9.46875 L 0.734375 -10.140625 L 4.75 -10.140625 L 4.75 -9.46875 L 3.484375 -9.296875 L 3.484375 -0.8125 L 4.75 -0.65625 L 4.75 0 L 0.75 0 L 0.75 -0.671875 L 2 -0.8125 Z M 2 -9.296875" transform="translate(116.861 186.02)"></path> </g> </g> </g> <g> <g> <g> <path d="M 3.953125 -10.234375 L 5.46875 -10.234375 L 8.78125 -0.8125 L 9.625 -0.671875 L 9.625 0 L 6.015625 0 L 6.015625 -0.671875 L 7.15625 -0.8125 L 6.515625 -2.828125 L 2.53125 -2.828125 L 1.890625 -0.8125 L 3.0625 -0.671875 L 3.0625 0 L -0.171875 0 L -0.171875 -0.671875 L 0.671875 -0.8125 Z M 4.828125 -8.046875 L 4.484375 -9.25 L 4.15625 -8.015625 L 2.765625 -3.625 L 6.25 -3.625 Z M 4.828125 -8.046875" transform="translate(114.917 200.949)"></path> </g> </g> </g> </svg> 