<?xml version="1.0" encoding="UTF-8"?> <svg xmlns="http://www.w3.org/2000/svg" width="375" viewBox="0 0 375 375" height="375"> <defs> <clipPath id="a"> <path d="M 138.910156 137.332031 L 235.960938 137.332031 L 235.960938 195 L 138.910156 195 Z M 138.910156 137.332031"></path> </clipPath> </defs> <path fill="#FFF" d="M-37.5 -37.5H412.5V412.5H-37.5z"></path> <path fill="#FFF" d="M-37.5 -37.5H412.5V412.5H-37.5z"></path> <path fill="#9AA7B2" d="M 270.765625 297.941406 C 270.765625 305.140625 264.503906 310.980469 257.828125 310.980469 L 114.175781 310.980469 C 112.296875 310.980469 110.421875 310.5625 108.75 309.832031 C 110.941406 312.128906 113.96875 313.484375 117.53125 313.484375 L 260.957031 313.484375 C 267.53125 313.484375 272.957031 308.058594 272.957031 301.488281 L 272.957031 77.058594 C 272.957031 74.03125 271.808594 71.320312 270.035156 69.234375 C 270.554688 70.589844 270.765625 72.050781 270.765625 73.511719 L 270.765625 297.941406"></path> <path fill="#FFF" d="M 114.175781 309.9375 L 257.621094 309.9375 C 264.191406 309.9375 269.617188 304.515625 269.617188 297.941406 L 269.617188 73.511719 C 269.617188 66.941406 264.191406 61.515625 257.621094 61.515625 L 114.175781 61.515625 C 107.605469 61.515625 102.179688 66.941406 102.179688 73.511719 L 102.179688 297.941406 C 102.179688 304.617188 107.605469 309.9375 114.175781 309.9375"></path> <path fill="#77838D" d="M 268.679688 66.628906 C 266.382812 62.976562 262.316406 60.472656 257.621094 60.472656 L 114.175781 60.472656 C 106.976562 60.472656 101.136719 66.3125 101.136719 73.511719 L 101.136719 297.941406 C 101.136719 302.21875 103.222656 305.972656 106.351562 308.371094 C 108.648438 312.023438 112.714844 314.527344 117.667969 314.527344 L 260.855469 314.527344 C 268.050781 314.527344 273.894531 308.6875 273.894531 301.488281 L 273.894531 77.058594 C 273.894531 72.78125 271.808594 69.027344 268.679688 66.628906 M 102.179688 297.941406 L 102.179688 73.511719 C 102.179688 66.941406 107.605469 61.515625 114.175781 61.515625 L 257.621094 61.515625 C 264.191406 61.515625 269.617188 66.941406 269.617188 73.511719 L 269.617188 297.941406 C 269.617188 304.515625 264.191406 309.9375 257.621094 309.9375 L 114.175781 309.9375 C 107.605469 309.9375 102.179688 304.617188 102.179688 297.941406 M 272.957031 301.488281 C 272.957031 308.058594 267.425781 313.484375 260.855469 313.484375 L 117.667969 313.484375 C 114.070312 313.484375 111.046875 312.128906 108.855469 309.832031 C 110.523438 310.5625 112.296875 310.980469 114.28125 310.980469 L 257.722656 310.980469 C 264.921875 310.980469 270.765625 305.140625 270.765625 297.941406 L 270.765625 73.511719 C 270.765625 72.050781 270.453125 70.589844 270.035156 69.234375 C 271.808594 71.320312 272.957031 74.03125 272.957031 77.058594 L 272.957031 301.488281"></path> <path fill="#100F0D" d="M 178.210938 218.238281 C 178.273438 218.21875 178.34375 218.246094 178.394531 218.289062 C 181 220.5 184.15625 221.964844 187.535156 222.5 C 188.054688 222.589844 188.582031 222.589844 189.101562 222.5 C 192.46875 221.964844 195.628906 220.5 198.238281 218.289062 C 198.34375 218.203125 198.496094 218.21875 198.582031 218.324219 C 198.636719 218.386719 198.652344 218.464844 198.636719 218.546875 C 197.527344 222.933594 194.632812 226.65625 190.648438 228.804688 C 189.1875 229.589844 187.429688 229.589844 185.96875 228.804688 C 181.992188 226.65625 179.089844 222.933594 177.992188 218.546875 C 177.957031 218.40625 178.035156 218.273438 178.167969 218.238281 C 178.175781 218.238281 178.195312 218.238281 178.203125 218.238281 Z M 178.148438 205.519531 C 181.34375 205.386719 184.332031 207.0625 185.898438 209.84375 C 185.953125 209.957031 185.917969 210.082031 185.820312 210.152344 L 185.847656 210.152344 C 182.601562 212.910156 177.746094 212.503906 175 209.253906 C 174.480469 208.636719 174.058594 207.949219 173.761719 207.210938 C 173.71875 207.105469 173.753906 206.980469 173.847656 206.910156 C 175.132812 206.066406 176.621094 205.589844 178.148438 205.519531 Z M 198.019531 205.519531 C 199.734375 205.484375 201.414062 205.976562 202.839844 206.910156 C 202.9375 206.980469 202.980469 207.105469 202.9375 207.210938 C 201.308594 211.148438 196.816406 213.023438 192.882812 211.394531 C 192.144531 211.09375 191.449219 210.671875 190.84375 210.152344 C 190.746094 210.089844 190.710938 209.957031 190.761719 209.84375 L 190.789062 209.84375 C 192.265625 207.21875 195.011719 205.574219 198.019531 205.519531 Z M 166.441406 198.507812 C 165.40625 211.527344 170.367188 224.316406 179.910156 233.226562 C 184.640625 237.640625 191.984375 237.640625 196.726562 233.226562 C 206.269531 224.316406 211.230469 211.527344 210.191406 198.507812 L 166.441406 198.507812"></path> <g clip-path="url(#a)"> <path fill="#100F0D" d="M 202.128906 173.488281 C 194.546875 165.984375 192.9375 154.324219 198.195312 145.039062 C 200.042969 146.582031 202.785156 146.335938 204.324219 144.484375 C 205.867188 142.636719 205.617188 139.886719 203.773438 138.347656 C 201.925781 136.804688 199.171875 137.050781 197.632812 138.902344 C 196.460938 140.320312 196.296875 142.308594 197.226562 143.894531 C 184.824219 147.117188 175.785156 157.792969 174.640625 170.5625 C 168.675781 161.527344 156.53125 159.050781 147.515625 165.023438 C 147.496094 165.03125 147.480469 165.042969 147.460938 165.050781 C 146.820312 162.734375 144.417969 161.367188 142.105469 162.019531 C 139.78125 162.664062 138.429688 165.066406 139.070312 167.382812 C 139.710938 169.710938 142.113281 171.066406 144.4375 170.421875 C 146.167969 169.9375 147.425781 168.433594 147.601562 166.636719 C 157.796875 172.640625 164.683594 182.992188 166.292969 194.722656 L 210.351562 194.722656 C 213.050781 186.300781 219.253906 179.476562 227.371094 175.988281 C 227.75 178.367188 229.984375 179.988281 232.359375 179.601562 C 234.734375 179.222656 236.351562 176.984375 235.964844 174.605469 C 235.585938 172.226562 233.351562 170.617188 230.976562 170.996094 C 229.542969 171.222656 228.320312 172.15625 227.714844 173.480469 C 220.792969 166.40625 209.453125 166.292969 202.390625 173.222656 C 202.304688 173.3125 202.214844 173.398438 202.128906 173.496094 L 202.128906 173.488281"></path> </g> <g> <g> <g> <path d="M 3.9375 0.15625 C 3.46875 0.15625 3.046875 0.113281 2.671875 0.03125 C 2.304688 -0.0507812 1.898438 -0.160156 1.453125 -0.296875 C 1.179688 -0.398438 0.976562 -0.457031 0.84375 -0.46875 L 0.953125 -2.921875 L 1.828125 -2.921875 L 2.046875 -1.15625 C 2.203125 -1.007812 2.453125 -0.878906 2.796875 -0.765625 C 3.148438 -0.648438 3.535156 -0.59375 3.953125 -0.59375 C 4.640625 -0.59375 5.160156 -0.742188 5.515625 -1.046875 C 5.878906 -1.359375 6.0625 -1.789062 6.0625 -2.34375 C 6.0625 -2.695312 5.960938 -3 5.765625 -3.25 C 5.578125 -3.5 5.320312 -3.710938 5 -3.890625 C 4.675781 -4.078125 4.234375 -4.296875 3.671875 -4.546875 C 3.160156 -4.765625 2.71875 -4.992188 2.34375 -5.234375 C 1.96875 -5.472656 1.640625 -5.785156 1.359375 -6.171875 C 1.085938 -6.566406 0.953125 -7.039062 0.953125 -7.59375 C 0.953125 -8.09375 1.082031 -8.539062 1.34375 -8.9375 C 1.613281 -9.332031 2 -9.640625 2.5 -9.859375 C 3.007812 -10.085938 3.597656 -10.203125 4.265625 -10.203125 C 4.679688 -10.203125 5.050781 -10.171875 5.375 -10.109375 C 5.695312 -10.046875 6.0625 -9.960938 6.46875 -9.859375 C 6.65625 -9.796875 6.8125 -9.753906 6.9375 -9.734375 L 6.84375 -7.453125 L 6.015625 -7.453125 L 5.75 -9.125 C 5.65625 -9.207031 5.460938 -9.289062 5.171875 -9.375 C 4.890625 -9.457031 4.582031 -9.5 4.25 -9.5 C 3.625 -9.5 3.148438 -9.367188 2.828125 -9.109375 C 2.515625 -8.847656 2.359375 -8.46875 2.359375 -7.96875 C 2.359375 -7.601562 2.453125 -7.296875 2.640625 -7.046875 C 2.835938 -6.804688 3.082031 -6.597656 3.375 -6.421875 C 3.664062 -6.253906 4.125 -6.019531 4.75 -5.71875 C 5.34375 -5.4375 5.820312 -5.179688 6.1875 -4.953125 C 6.5625 -4.734375 6.882812 -4.4375 7.15625 -4.0625 C 7.425781 -3.695312 7.5625 -3.265625 7.5625 -2.765625 C 7.5625 -2.273438 7.425781 -1.804688 7.15625 -1.359375 C 6.882812 -0.921875 6.472656 -0.554688 5.921875 -0.265625 C 5.378906 0.015625 4.71875 0.15625 3.9375 0.15625 Z M 3.9375 0.15625" transform="translate(116.41 87.175)"></path> </g> </g> </g> <g> <g> <g> <path d="M 3.9375 -10.1875 L 5.4375 -10.1875 L 8.734375 -0.796875 L 9.578125 -0.671875 L 9.578125 0 L 6 0 L 6 -0.671875 L 7.125 -0.796875 L 6.484375 -2.8125 L 2.515625 -2.8125 L 1.875 -0.796875 L 3.046875 -0.671875 L 3.046875 0 L -0.171875 0 L -0.171875 -0.671875 L 0.671875 -0.796875 Z M 4.796875 -8 L 4.453125 -9.203125 L 4.125 -7.984375 L 2.765625 -3.609375 L 6.21875 -3.609375 Z M 4.796875 -8" transform="translate(115.773 102.04)"></path> </g> </g> </g> <g> <g> <g> <path d="M 1.765625 -9.25 L 0.671875 -9.421875 L 0.671875 -10.09375 L 3.203125 -10.09375 L 7.734375 -3.46875 L 8.5 -2.03125 L 8.5 -9.25 L 7.3125 -9.421875 L 7.3125 -10.09375 L 10.515625 -10.09375 L 10.515625 -9.421875 L 9.4375 -9.25 L 9.4375 0 L 8.359375 0 L 3.734375 -6.78125 L 2.6875 -8.578125 L 2.6875 -0.796875 L 3.984375 -0.671875 L 3.984375 0 L 0.671875 0 L 0.671875 -0.671875 L 1.765625 -0.8125 Z M 1.765625 -9.25" transform="translate(114.994 116.905)"></path> </g> </g> </g> <g> <g> <g> <path d="M 2 -9.25 L 0.734375 -9.421875 L 0.734375 -10.09375 L 4.734375 -10.09375 L 4.734375 -9.421875 L 3.46875 -9.25 L 3.46875 -0.796875 L 4.734375 -0.65625 L 4.734375 0 L 0.75 0 L 0.75 -0.671875 L 2 -0.796875 Z M 2 -9.25" transform="translate(117.684 131.77)"></path> </g> </g> </g> <g> <g> <g> <path d="M 3.9375 -9.375 L 1.609375 -9.296875 L 1.125 -6.453125 L 0.234375 -6.453125 L 0.46875 -10.09375 L 8.9375 -10.09375 L 9.09375 -6.453125 L 8.234375 -6.453125 L 7.796875 -9.296875 L 5.4375 -9.375 L 5.4375 -0.796875 L 7.375 -0.671875 L 7.375 0 L 2.171875 0 L 2.171875 -0.671875 L 3.9375 -0.796875 Z M 3.9375 -9.375" transform="translate(115.773 146.635)"></path> </g> </g> </g> <g> <g> <g> <path d="M 3.9375 -10.1875 L 5.4375 -10.1875 L 8.734375 -0.796875 L 9.578125 -0.671875 L 9.578125 0 L 6 0 L 6 -0.671875 L 7.125 -0.796875 L 6.484375 -2.8125 L 2.515625 -2.8125 L 1.875 -0.796875 L 3.046875 -0.671875 L 3.046875 0 L -0.171875 0 L -0.171875 -0.671875 L 0.671875 -0.796875 Z M 4.796875 -8 L 4.453125 -9.203125 L 4.125 -7.984375 L 2.765625 -3.609375 L 6.21875 -3.609375 Z M 4.796875 -8" transform="translate(115.773 161.5)"></path> </g> </g> </g> <g> <g> <g> <path d="M 3.9375 0.15625 C 3.46875 0.15625 3.046875 0.113281 2.671875 0.03125 C 2.304688 -0.0507812 1.898438 -0.160156 1.453125 -0.296875 C 1.179688 -0.398438 0.976562 -0.457031 0.84375 -0.46875 L 0.953125 -2.921875 L 1.828125 -2.921875 L 2.046875 -1.15625 C 2.203125 -1.007812 2.453125 -0.878906 2.796875 -0.765625 C 3.148438 -0.648438 3.535156 -0.59375 3.953125 -0.59375 C 4.640625 -0.59375 5.160156 -0.742188 5.515625 -1.046875 C 5.878906 -1.359375 6.0625 -1.789062 6.0625 -2.34375 C 6.0625 -2.695312 5.960938 -3 5.765625 -3.25 C 5.578125 -3.5 5.320312 -3.710938 5 -3.890625 C 4.675781 -4.078125 4.234375 -4.296875 3.671875 -4.546875 C 3.160156 -4.765625 2.71875 -4.992188 2.34375 -5.234375 C 1.96875 -5.472656 1.640625 -5.785156 1.359375 -6.171875 C 1.085938 -6.566406 0.953125 -7.039062 0.953125 -7.59375 C 0.953125 -8.09375 1.082031 -8.539062 1.34375 -8.9375 C 1.613281 -9.332031 2 -9.640625 2.5 -9.859375 C 3.007812 -10.085938 3.597656 -10.203125 4.265625 -10.203125 C 4.679688 -10.203125 5.050781 -10.171875 5.375 -10.109375 C 5.695312 -10.046875 6.0625 -9.960938 6.46875 -9.859375 C 6.65625 -9.796875 6.8125 -9.753906 6.9375 -9.734375 L 6.84375 -7.453125 L 6.015625 -7.453125 L 5.75 -9.125 C 5.65625 -9.207031 5.460938 -9.289062 5.171875 -9.375 C 4.890625 -9.457031 4.582031 -9.5 4.25 -9.5 C 3.625 -9.5 3.148438 -9.367188 2.828125 -9.109375 C 2.515625 -8.847656 2.359375 -8.46875 2.359375 -7.96875 C 2.359375 -7.601562 2.453125 -7.296875 2.640625 -7.046875 C 2.835938 -6.804688 3.082031 -6.597656 3.375 -6.421875 C 3.664062 -6.253906 4.125 -6.019531 4.75 -5.71875 C 5.34375 -5.4375 5.820312 -5.179688 6.1875 -4.953125 C 6.5625 -4.734375 6.882812 -4.4375 7.15625 -4.0625 C 7.425781 -3.695312 7.5625 -3.265625 7.5625 -2.765625 C 7.5625 -2.273438 7.425781 -1.804688 7.15625 -1.359375 C 6.882812 -0.921875 6.472656 -0.554688 5.921875 -0.265625 C 5.378906 0.015625 4.71875 0.15625 3.9375 0.15625 Z M 3.9375 0.15625" transform="translate(116.414 176.364)"></path> </g> </g> </g> <g> <g> <g> <path d="M -3.9375 -0.15625 C -3.46875 -0.15625 -3.046875 -0.113281 -2.671875 -0.03125 C -2.304688 0.0507812 -1.898438 0.160156 -1.453125 0.296875 C -1.179688 0.398438 -0.976562 0.457031 -0.84375 0.46875 L -0.953125 2.921875 L -1.828125 2.921875 L -2.046875 1.15625 C -2.203125 1.007812 -2.453125 0.878906 -2.796875 0.765625 C -3.148438 0.648438 -3.535156 0.59375 -3.953125 0.59375 C -4.640625 0.59375 -5.160156 0.742188 -5.515625 1.046875 C -5.878906 1.359375 -6.0625 1.789062 -6.0625 2.34375 C -6.0625 2.695312 -5.960938 3 -5.765625 3.25 C -5.578125 3.5 -5.320312 3.710938 -5 3.890625 C -4.675781 4.078125 -4.234375 4.296875 -3.671875 4.546875 C -3.160156 4.765625 -2.71875 4.992188 -2.34375 5.234375 C -1.96875 5.472656 -1.640625 5.785156 -1.359375 6.171875 C -1.085938 6.566406 -0.953125 7.039062 -0.953125 7.59375 C -0.953125 8.09375 -1.082031 8.539062 -1.34375 8.9375 C -1.613281 9.332031 -2 9.640625 -2.5 9.859375 C -3.007812 10.085938 -3.597656 10.203125 -4.265625 10.203125 C -4.679688 10.203125 -5.050781 10.171875 -5.375 10.109375 C -5.695312 10.046875 -6.0625 9.960938 -6.46875 9.859375 C -6.65625 9.796875 -6.8125 9.753906 -6.9375 9.734375 L -6.84375 7.453125 L -6.015625 7.453125 L -5.75 9.125 C -5.65625 9.207031 -5.460938 9.289062 -5.171875 9.375 C -4.890625 9.457031 -4.582031 9.5 -4.25 9.5 C -3.625 9.5 -3.148438 9.367188 -2.828125 9.109375 C -2.515625 8.847656 -2.359375 8.46875 -2.359375 7.96875 C -2.359375 7.601562 -2.453125 7.296875 -2.640625 7.046875 C -2.835938 6.804688 -3.082031 6.597656 -3.375 6.421875 C -3.664062 6.253906 -4.125 6.019531 -4.75 5.71875 C -5.34375 5.4375 -5.820312 5.179688 -6.1875 4.953125 C -6.5625 4.734375 -6.882812 4.4375 -7.15625 4.0625 C -7.425781 3.695312 -7.5625 3.265625 -7.5625 2.765625 C -7.5625 2.273438 -7.425781 1.804688 -7.15625 1.359375 C -6.882812 0.921875 -6.472656 0.554688 -5.921875 0.265625 C -5.378906 -0.015625 -4.71875 -0.15625 -3.9375 -0.15625 Z M -3.9375 -0.15625" transform="translate(257.584 287.08)"></path> </g> </g> </g> <g> <g> <g> <path d="M -3.9375 10.1875 L -5.4375 10.1875 L -8.734375 0.796875 L -9.578125 0.671875 L -9.578125 0 L -6 0 L -6 0.671875 L -7.125 0.796875 L -6.484375 2.8125 L -2.515625 2.8125 L -1.875 0.796875 L -3.046875 0.671875 L -3.046875 0 L 0.171875 0 L 0.171875 0.671875 L -0.671875 0.796875 Z M -4.796875 8 L -4.453125 9.203125 L -4.125 7.984375 L -2.765625 3.609375 L -6.21875 3.609375 Z M -4.796875 8" transform="translate(258.22 272.214)"></path> </g> </g> </g> <g> <g> <g> <path d="M -1.765625 9.25 L -0.671875 9.421875 L -0.671875 10.09375 L -3.203125 10.09375 L -7.734375 3.46875 L -8.5 2.03125 L -8.5 9.25 L -7.3125 9.421875 L -7.3125 10.09375 L -10.515625 10.09375 L -10.515625 9.421875 L -9.4375 9.25 L -9.4375 0 L -8.359375 0 L -3.734375 6.78125 L -2.6875 8.578125 L -2.6875 0.796875 L -3.984375 0.671875 L -3.984375 0 L -0.671875 0 L -0.671875 0.671875 L -1.765625 0.8125 Z M -1.765625 9.25" transform="translate(259 257.35)"></path> </g> </g> </g> <g> <g> <g> <path d="M -2 9.25 L -0.734375 9.421875 L -0.734375 10.09375 L -4.734375 10.09375 L -4.734375 9.421875 L -3.46875 9.25 L -3.46875 0.796875 L -4.734375 0.65625 L -4.734375 0 L -0.75 0 L -0.75 0.671875 L -2 0.796875 Z M -2 9.25" transform="translate(256.31 242.485)"></path> </g> </g> </g> <g> <g> <g> <path d="M -3.9375 9.375 L -1.609375 9.296875 L -1.125 6.453125 L -0.234375 6.453125 L -0.46875 10.09375 L -8.9375 10.09375 L -9.09375 6.453125 L -8.234375 6.453125 L -7.796875 9.296875 L -5.4375 9.375 L -5.4375 0.796875 L -7.375 0.671875 L -7.375 0 L -2.171875 0 L -2.171875 0.671875 L -3.9375 0.796875 Z M -3.9375 9.375" transform="translate(258.22 227.62)"></path> </g> </g> </g> <g> <g> <g> <path d="M -3.9375 10.1875 L -5.4375 10.1875 L -8.734375 0.796875 L -9.578125 0.671875 L -9.578125 0 L -6 0 L -6 0.671875 L -7.125 0.796875 L -6.484375 2.8125 L -2.515625 2.8125 L -1.875 0.796875 L -3.046875 0.671875 L -3.046875 0 L 0.171875 0 L 0.171875 0.671875 L -0.671875 0.796875 Z M -4.796875 8 L -4.453125 9.203125 L -4.125 7.984375 L -2.765625 3.609375 L -6.21875 3.609375 Z M -4.796875 8" transform="translate(258.22 212.755)"></path> </g> </g> </g> <g> <g> <g> <path d="M -3.9375 -0.15625 C -3.46875 -0.15625 -3.046875 -0.113281 -2.671875 -0.03125 C -2.304688 0.0507812 -1.898438 0.160156 -1.453125 0.296875 C -1.179688 0.398438 -0.976562 0.457031 -0.84375 0.46875 L -0.953125 2.921875 L -1.828125 2.921875 L -2.046875 1.15625 C -2.203125 1.007812 -2.453125 0.878906 -2.796875 0.765625 C -3.148438 0.648438 -3.535156 0.59375 -3.953125 0.59375 C -4.640625 0.59375 -5.160156 0.742188 -5.515625 1.046875 C -5.878906 1.359375 -6.0625 1.789062 -6.0625 2.34375 C -6.0625 2.695312 -5.960938 3 -5.765625 3.25 C -5.578125 3.5 -5.320312 3.710938 -5 3.890625 C -4.675781 4.078125 -4.234375 4.296875 -3.671875 4.546875 C -3.160156 4.765625 -2.71875 4.992188 -2.34375 5.234375 C -1.96875 5.472656 -1.640625 5.785156 -1.359375 6.171875 C -1.085938 6.566406 -0.953125 7.039062 -0.953125 7.59375 C -0.953125 8.09375 -1.082031 8.539062 -1.34375 8.9375 C -1.613281 9.332031 -2 9.640625 -2.5 9.859375 C -3.007812 10.085938 -3.597656 10.203125 -4.265625 10.203125 C -4.679688 10.203125 -5.050781 10.171875 -5.375 10.109375 C -5.695312 10.046875 -6.0625 9.960938 -6.46875 9.859375 C -6.65625 9.796875 -6.8125 9.753906 -6.9375 9.734375 L -6.84375 7.453125 L -6.015625 7.453125 L -5.75 9.125 C -5.65625 9.207031 -5.460938 9.289062 -5.171875 9.375 C -4.890625 9.457031 -4.582031 9.5 -4.25 9.5 C -3.625 9.5 -3.148438 9.367188 -2.828125 9.109375 C -2.515625 8.847656 -2.359375 8.46875 -2.359375 7.96875 C -2.359375 7.601562 -2.453125 7.296875 -2.640625 7.046875 C -2.835938 6.804688 -3.082031 6.597656 -3.375 6.421875 C -3.664062 6.253906 -4.125 6.019531 -4.75 5.71875 C -5.34375 5.4375 -5.820312 5.179688 -6.1875 4.953125 C -6.5625 4.734375 -6.882812 4.4375 -7.15625 4.0625 C -7.425781 3.695312 -7.5625 3.265625 -7.5625 2.765625 C -7.5625 2.273438 -7.425781 1.804688 -7.15625 1.359375 C -6.882812 0.921875 -6.472656 0.554688 -5.921875 0.265625 C -5.378906 -0.015625 -4.71875 -0.15625 -3.9375 -0.15625 Z M -3.9375 -0.15625" transform="translate(257.58 197.89)"></path> </g> </g> </g> </svg> 